<?xml version="1.0" encoding="UTF-8"?> <svg xmlns="http://www.w3.org/2000/svg" width="160" height="60" viewBox="0 0 160 60" fill="none"><path d="M61.6133 38.3022V26.665H57.1343V23.5464H69.9645V26.665H65.4854V38.3022H61.6133Z" fill="white"></path><path d="M70.3345 30.914C70.3345 29.3792 70.6345 28.0466 71.2345 26.9164C71.8345 25.7722 72.6926 24.8862 73.8089 24.2583C74.9252 23.6304 76.2438 23.3164 77.7647 23.3164C79.2996 23.3164 80.6252 23.6304 81.7415 24.2583C82.8577 24.8862 83.7159 25.7722 84.3159 26.9164C84.9298 28.0466 85.2368 29.3792 85.2368 30.914C85.2368 32.435 84.9298 33.7675 84.3159 34.9117C83.7159 36.0559 82.8577 36.9489 81.7415 37.5908C80.6252 38.2187 79.2996 38.5326 77.7647 38.5326C76.2438 38.5326 74.9252 38.2187 73.8089 37.5908C72.7066 36.9489 71.8484 36.0559 71.2345 34.9117C70.6345 33.7675 70.3345 32.435 70.3345 30.914ZM74.374 30.914C74.374 32.2954 74.6531 33.3768 75.2112 34.1582C75.7694 34.9257 76.6205 35.3094 77.7647 35.3094C78.9089 35.3094 79.767 34.9257 80.3391 34.1582C80.9112 33.3768 81.1973 32.2954 81.1973 30.914C81.1973 29.5326 80.9112 28.4582 80.3391 27.6908C79.767 26.9233 78.9089 26.5396 77.7647 26.5396C76.6205 26.5396 75.7694 26.9233 75.2112 27.6908C74.6531 28.4443 74.374 29.5187 74.374 30.914Z" fill="white"></path><path d="M87.5542 38.3022V23.5464H90.4007L97.8728 32.8184H97.2658V23.5464H100.845V38.3022H97.9984L90.5682 29.0301H91.1751V38.3022H87.5542Z" fill="white"></path><path d="M109.608 38.3022V23.5464H116.85C118.553 23.5464 119.836 23.965 120.701 24.8022C121.567 25.6255 121.999 26.7487 121.999 28.1719C121.999 29.5812 121.567 30.7045 120.701 31.5417C119.836 32.3789 118.553 32.7975 116.85 32.7975H113.48V38.3022H109.608ZM113.48 29.8254H116.348C117.004 29.8254 117.492 29.6859 117.813 29.4068C118.134 29.1138 118.294 28.7022 118.294 28.1719C118.294 27.6417 118.134 27.2301 117.813 26.937C117.492 26.644 117.004 26.4975 116.348 26.4975H113.48V29.8254Z" fill="white"></path><path d="M123.707 38.3026V22.8979H127.433V38.3026H123.707Z" fill="white"></path><path d="M133.923 38.5325C133.002 38.5325 132.193 38.3162 131.495 37.8836C130.797 37.4371 130.246 36.7953 129.841 35.9581C129.451 35.1208 129.255 34.1302 129.255 32.986C129.255 31.8278 129.451 30.8371 129.841 30.0139C130.246 29.1767 130.797 28.5418 131.495 28.1092C132.193 27.6627 133.002 27.4395 133.923 27.4395C134.746 27.4395 135.486 27.6348 136.141 28.0255C136.811 28.4162 137.251 28.9255 137.46 29.5534H137.251L137.481 27.6697H141.06C141.018 28.1441 140.976 28.6255 140.934 29.1139C140.907 29.6022 140.893 30.0836 140.893 30.5581V38.3022H137.209L137.167 36.5022H137.418C137.209 37.1162 136.769 37.6115 136.1 37.9883C135.444 38.3511 134.718 38.5325 133.923 38.5325ZM135.116 35.7697C135.744 35.7697 136.253 35.5534 136.644 35.1208C137.034 34.6743 137.23 33.9627 137.23 32.986C137.23 32.0092 137.034 31.3046 136.644 30.872C136.253 30.4255 135.744 30.2022 135.116 30.2022C134.488 30.2022 133.979 30.4255 133.588 30.872C133.197 31.3046 133.002 32.0092 133.002 32.986C133.002 33.9627 133.19 34.6743 133.567 35.1208C133.958 35.5534 134.474 35.7697 135.116 35.7697Z" fill="white"></path><path d="M143.146 43.0536L142.267 40.1653C142.937 40.0397 143.495 39.9002 143.942 39.7467C144.402 39.6071 144.779 39.4118 145.072 39.1606C145.365 38.9095 145.595 38.5815 145.763 38.1769L146.286 36.9629L146.202 38.3653L141.556 27.6699H145.491L148.211 34.7234H147.521L150.325 27.6699H154.009L149.237 38.5327C148.86 39.3839 148.456 40.0815 148.023 40.6257C147.605 41.1699 147.144 41.6025 146.642 41.9234C146.153 42.2443 145.616 42.4815 145.03 42.635C144.458 42.8025 143.83 42.942 143.146 43.0536Z" fill="white"></path><mask id="mask0_763_7846" style="mask-type:alpha" maskUnits="userSpaceOnUse" x="10" y="10" width="35" height="40"><path d="M19.2494 10.0464L10.8364 15.0381L19.2494 19.9467L10.9181 24.9384L19.2494 29.9302L10.9181 34.8386L19.2494 39.8303L10.9181 44.822L19.2494 49.8139L44.3248 34.8386V24.9384L19.2494 10.0464Z" fill="#D9D9D9"></path></mask><g mask="url(#mask0_763_7846)"><path fill-rule="evenodd" clip-rule="evenodd" d="M10.8364 15.0381L19.2494 10.0464L44.3248 24.9384V34.8386L19.2494 49.8139L10.9181 44.822L19.2494 39.8303L10.9181 34.8386L19.2485 29.9307L27.5785 34.9217L35.9916 29.93L27.5785 24.9382L19.2485 29.9307L10.9181 24.9384L19.2494 19.9467L10.8364 15.0381Z" fill="white"></path><path d="M44.3887 24.9595L10.8364 44.8432L19.377 49.8141L44.3887 34.9013V24.9595Z" fill="white"></path><path d="M27.8618 60.4536V43.8838L13.6274 52.1687L27.8618 60.4536Z" fill="white"></path><path opacity="0.75" d="M19.3784 29.9301V19.9883L27.9189 24.9592L19.3784 29.9301Z" fill="white"></path></g></svg> 