<?xml version="1.0" encoding="UTF-8"?> <svg xmlns="http://www.w3.org/2000/svg" width="160" height="60" viewBox="0 0 160 60" fill="none"><path fill-rule="evenodd" clip-rule="evenodd" d="M14.9815 16.3853C14.9815 24.036 8.68375 30.2381 0.915039 30.2381C0.915039 22.5874 7.21281 16.3853 14.9815 16.3853ZM14.9815 44.0909C7.21281 44.0909 0.915039 37.8887 0.915039 30.2381C8.68375 30.2381 14.9815 36.4402 14.9815 44.0909ZM29.0481 30.2381C29.0481 37.8887 22.7502 44.0909 14.9815 44.0909C14.9815 36.4402 21.2793 30.2381 29.0481 30.2381ZM27.8758 17.5397C27.8758 23.9152 22.6277 29.0837 16.1538 29.0837C16.1538 22.7081 21.4019 17.5397 27.8758 17.5397Z" fill="white"></path><path d="M48.4319 43.8828C47.2316 43.8828 46.0218 43.7074 44.8028 43.3565C43.6025 43.024 42.6272 42.5807 41.8769 42.0267L43.4524 38.8681C44.0526 39.2745 44.7278 39.5886 45.478 39.8101C46.2469 40.0503 47.0441 40.1704 47.8693 40.1704C48.8258 40.1704 49.6041 40.0319 50.2044 39.7547C50.8044 39.4777 51.2453 39.0621 51.5266 38.5081C51.8266 37.9538 51.9767 37.2613 51.9767 36.43V33.9919L52.8207 34.1582C52.7081 34.7308 52.3894 35.2665 51.8641 35.7652C51.3577 36.2638 50.7295 36.661 49.9793 36.9565C49.229 37.252 48.4413 37.3998 47.616 37.3998C46.2658 37.3998 45.056 37.095 43.9869 36.4855C42.9178 35.8575 42.0739 34.9987 41.455 33.9089C40.8549 32.8006 40.5547 31.5261 40.5547 30.0855C40.5547 28.6079 40.8549 27.2965 41.455 26.1513C42.0739 25.0061 42.9085 24.1104 43.9587 23.4638C45.0091 22.8174 46.1906 22.4941 47.5036 22.4941C48.0474 22.4941 48.5727 22.5588 49.079 22.6881C49.6041 22.7989 50.0825 22.9651 50.5138 23.1868C50.964 23.4084 51.3577 23.6578 51.6954 23.9348C52.0517 24.2119 52.3424 24.5166 52.5675 24.8491C52.7926 25.1816 52.9332 25.5141 52.9894 25.8465L52.0611 26.1236L52.23 22.7989H56.5343V36.2915C56.5343 37.4921 56.3464 38.5634 55.9715 39.5054C55.615 40.4474 55.0804 41.2416 54.368 41.888C53.6741 42.5346 52.83 43.024 51.8361 43.3565C50.8421 43.7074 49.7073 43.8828 48.4319 43.8828ZM48.5445 33.9366C49.2759 33.9366 49.9042 33.7797 50.4294 33.4656C50.9733 33.1516 51.3859 32.7083 51.6672 32.1356C51.9674 31.5631 52.1174 30.8983 52.1174 30.1409C52.1174 29.3467 51.9674 28.6633 51.6672 28.0907C51.3859 27.5181 50.9733 27.0748 50.4294 26.7608C49.9042 26.4283 49.2759 26.2621 48.5445 26.2621C47.8505 26.2621 47.241 26.4283 46.7159 26.7608C46.1907 27.0748 45.7782 27.5181 45.478 28.0907C45.1967 28.6633 45.056 29.3374 45.056 30.1132C45.056 30.889 45.1967 31.5631 45.478 32.1356C45.7782 32.7083 46.1907 33.1516 46.7159 33.4656C47.241 33.7797 47.8505 33.9366 48.5445 33.9366Z" fill="white"></path><path d="M66.997 37.7876C65.3463 37.7876 63.9023 37.4644 62.6645 36.818C61.4456 36.1714 60.4983 35.2849 59.8231 34.1582C59.1668 33.013 58.8384 31.7109 58.8384 30.2517C58.8384 29.1066 59.0261 28.063 59.401 27.121C59.7758 26.1606 60.3012 25.3386 60.9764 24.6552C61.6707 23.9718 62.4766 23.4454 63.3959 23.076C64.3334 22.6881 65.356 22.4941 66.4625 22.4941C67.5125 22.4941 68.469 22.6789 69.3319 23.0482C70.1949 23.4177 70.9447 23.9348 71.5826 24.5998C72.2205 25.2647 72.7079 26.0497 73.0455 26.9547C73.3831 27.8598 73.5428 28.848 73.5238 29.9193L73.4956 31.1383H61.6236L60.9484 28.6171H69.8103L69.3319 29.1158V28.5617C69.2948 28.1 69.1442 27.7028 68.8818 27.3703C68.6378 27.0194 68.3101 26.7424 67.8971 26.5392C67.5034 26.336 67.0532 26.2344 66.5469 26.2344C65.7964 26.2344 65.1591 26.3822 64.6337 26.6777C64.1274 26.9547 63.7426 27.3611 63.4804 27.8967C63.218 28.4324 63.0865 29.0974 63.0865 29.8915C63.0865 30.6857 63.2553 31.3876 63.5928 31.9971C63.9494 32.6066 64.4558 33.0777 65.1121 33.4101C65.7873 33.7426 66.5841 33.9089 67.5034 33.9089C68.1222 33.9089 68.6849 33.8165 69.1913 33.6319C69.6977 33.4472 70.2413 33.1331 70.823 32.6898L72.933 35.6265C72.3514 36.1068 71.7324 36.5132 71.0762 36.8456C70.4199 37.1596 69.7449 37.3905 69.0506 37.5383C68.3754 37.7045 67.6911 37.7876 66.997 37.7876Z" fill="white"></path><path d="M77.0663 37.5107V19.0864H81.5957V37.5107H77.0663ZM74.4219 26.7055V22.799H84.4653V26.7055H74.4219Z" fill="white"></path><path d="M93.2019 43.8834C92.0013 43.8834 90.7917 43.708 89.5728 43.3569C88.3722 43.0246 87.3966 42.5813 86.6469 42.0271L88.2224 38.8687C88.8223 39.2751 89.4975 39.589 90.248 39.8107C91.0167 40.0508 91.8135 40.1708 92.6393 40.1708C93.5958 40.1708 94.3737 40.0323 94.9742 39.7552C95.5743 39.4782 96.0151 39.0627 96.2966 38.5084C96.5962 37.9544 96.7467 37.2617 96.7467 36.4306V33.9925L97.5906 34.1587C97.4782 34.7314 97.1588 35.267 96.6341 35.7656C96.1278 36.2643 95.499 36.6614 94.7492 36.9569C93.9988 37.2525 93.211 37.4003 92.386 37.4003C91.0356 37.4003 89.8259 37.0956 88.7569 36.486C87.6878 35.8581 86.8438 34.9991 86.225 33.9093C85.6243 32.8012 85.3247 31.5267 85.3247 30.086C85.3247 28.6084 85.6243 27.297 86.225 26.1518C86.8438 25.0066 87.6781 24.1108 88.7287 23.4643C89.7788 22.8179 90.9604 22.4946 92.2736 22.4946C92.8173 22.4946 93.3425 22.5593 93.8489 22.6886C94.3737 22.7994 94.8519 22.9656 95.2837 23.1873C95.7338 23.4089 96.1278 23.6583 96.4653 23.9353C96.8212 24.2124 97.1124 24.5172 97.3375 24.8496C97.5626 25.1821 97.7032 25.5145 97.7595 25.847L96.8311 26.1241L96.9998 22.7994H101.304V36.2921C101.304 37.4927 101.116 38.5639 100.742 39.5059C100.385 40.448 99.8504 41.2422 99.138 41.8886C98.4438 42.5351 97.5998 43.0246 96.6061 43.3569C95.6115 43.708 94.477 43.8834 93.2019 43.8834ZM93.3145 33.937C94.0459 33.937 94.674 33.7801 95.1993 33.466C95.743 33.1521 96.1559 32.7088 96.4372 32.1362C96.7368 31.5637 96.8874 30.8987 96.8874 30.1414C96.8874 29.3472 96.7368 28.6638 96.4372 28.0912C96.1559 27.5186 95.743 27.0754 95.1993 26.7613C94.674 26.4288 94.0459 26.2626 93.3145 26.2626C92.6203 26.2626 92.0104 26.4288 91.4858 26.7613C90.9604 27.0754 90.5476 27.5186 90.248 28.0912C89.9667 28.6638 89.8259 29.3379 89.8259 30.1137C89.8259 30.8894 89.9667 31.5637 90.248 32.1362C90.5476 32.7088 90.9604 33.1521 91.4858 33.466C92.0104 33.7801 92.6203 33.937 93.3145 33.937Z" fill="white"></path><path d="M111.768 37.7881C110.117 37.7881 108.673 37.4649 107.435 36.8184C106.215 36.172 105.269 35.2854 104.594 34.1587C103.937 33.0136 103.609 31.7113 103.609 30.2521C103.609 29.1071 103.796 28.0635 104.172 27.1215C104.546 26.1611 105.072 25.3391 105.747 24.6557C106.44 23.9723 107.247 23.4459 108.166 23.0764C109.104 22.6886 110.126 22.4946 111.233 22.4946C112.283 22.4946 113.24 22.6794 114.102 23.0487C114.965 23.4182 115.715 23.9353 116.353 24.6003C116.99 25.2652 117.478 26.0502 117.816 26.9552C118.154 27.8603 118.313 28.8485 118.294 29.9197L118.266 31.1388H106.394L105.719 28.6176H114.581L114.102 29.1163V28.5622C114.065 28.1005 113.915 27.7033 113.652 27.3708C113.408 27.0199 113.08 26.7429 112.668 26.5397C112.274 26.3365 111.824 26.2349 111.317 26.2349C110.567 26.2349 109.929 26.3827 109.404 26.6782C108.898 26.9552 108.513 27.3616 108.251 27.8972C107.988 28.4329 107.857 29.0979 107.857 29.892C107.857 30.6863 108.026 31.3881 108.363 31.9977C108.719 32.6072 109.226 33.0782 109.883 33.4107C110.558 33.7432 111.355 33.9093 112.274 33.9093C112.893 33.9093 113.455 33.8171 113.962 33.6323C114.468 33.4476 115.012 33.1337 115.593 32.6902L117.704 35.6271C117.122 36.1074 116.503 36.5136 115.847 36.8461C115.19 37.1602 114.515 37.391 113.821 37.5388C113.146 37.7051 112.461 37.7881 111.768 37.7881Z" fill="white"></path><path d="M120.57 37.5107V22.799H124.874L125.015 25.4588L124.396 25.5142C124.602 25.034 124.883 24.6092 125.24 24.2397C125.597 23.8703 125.99 23.5656 126.422 23.3254C126.872 23.0669 127.341 22.8729 127.828 22.7436C128.315 22.5959 128.804 22.522 129.291 22.522C130.042 22.522 130.707 22.6328 131.288 22.8544C131.889 23.0761 132.405 23.4363 132.836 23.935C133.286 24.4337 133.643 25.0986 133.905 25.9298L133.23 25.8189L133.427 25.4311C133.689 24.9878 134.008 24.5907 134.383 24.2397C134.777 23.8703 135.208 23.5564 135.677 23.2977C136.146 23.0392 136.625 22.8452 137.112 22.7159C137.619 22.5867 138.106 22.522 138.575 22.522C139.757 22.522 140.741 22.7529 141.529 23.2146C142.317 23.6764 142.907 24.3598 143.301 25.2648C143.695 26.1514 143.892 27.2504 143.892 28.5618V37.5107H139.363V28.8943C139.363 28.0262 139.175 27.3797 138.8 26.9549C138.444 26.5116 137.9 26.2899 137.168 26.2899C136.774 26.2899 136.409 26.3546 136.071 26.4839C135.752 26.5947 135.471 26.7702 135.227 27.0103C135.002 27.2319 134.824 27.4906 134.693 27.786C134.561 28.0816 134.496 28.4141 134.496 28.7834V37.5107H129.966V28.8666C129.966 28.0354 129.769 27.3982 129.375 26.9549C129.001 26.5116 128.466 26.2899 127.772 26.2899C127.397 26.2899 127.04 26.3546 126.703 26.4839C126.384 26.5947 126.103 26.7702 125.859 27.0103C125.634 27.2319 125.456 27.4906 125.324 27.786C125.193 28.0816 125.127 28.4141 125.127 28.7834V37.5107H120.57Z" fill="white"></path><path d="M152.134 37.7876C150.708 37.7876 149.433 37.566 148.308 37.1228C147.182 36.661 146.282 36.0329 145.607 35.2387L148.364 32.9114C148.945 33.4841 149.602 33.9089 150.333 34.1859C151.065 34.4445 151.758 34.5737 152.415 34.5737C152.659 34.5737 152.875 34.5461 153.062 34.4907C153.25 34.4352 153.408 34.3615 153.541 34.269C153.69 34.1582 153.803 34.0381 153.878 33.9089C153.952 33.7611 153.99 33.5948 153.99 33.4101C153.99 33.0408 153.83 32.7637 153.512 32.5791C153.363 32.4867 153.09 32.3758 152.697 32.2466C152.303 32.0988 151.796 31.9511 151.177 31.8033C150.295 31.5816 149.527 31.3138 148.87 30.9998C148.232 30.6857 147.707 30.3257 147.295 29.9193C146.919 29.5499 146.629 29.1251 146.423 28.6448C146.235 28.1646 146.141 27.629 146.141 27.0379C146.141 26.1329 146.413 25.3386 146.957 24.6552C147.52 23.9718 148.252 23.4454 149.152 23.076C150.052 22.6881 151.027 22.4941 152.078 22.4941C152.902 22.4941 153.681 22.5865 154.412 22.7712C155.162 22.9559 155.857 23.2145 156.494 23.547C157.151 23.8794 157.733 24.2766 158.239 24.7383L155.848 27.3703C155.528 27.0564 155.153 26.7793 154.722 26.5392C154.291 26.2806 153.859 26.0774 153.428 25.9296C152.997 25.7634 152.593 25.6803 152.218 25.6803C151.937 25.6803 151.684 25.708 151.459 25.7634C151.252 25.8004 151.074 25.8742 150.924 25.9851C150.793 26.0774 150.689 26.1975 150.615 26.3452C150.539 26.4745 150.502 26.6223 150.502 26.7885C150.502 26.9917 150.548 27.1764 150.643 27.3426C150.755 27.4904 150.905 27.629 151.093 27.7582C151.262 27.8506 151.552 27.9706 151.965 28.1184C152.396 28.2662 152.959 28.4324 153.654 28.6171C154.534 28.8572 155.284 29.1343 155.904 29.4483C156.541 29.7438 157.047 30.0948 157.423 30.501C157.742 30.8151 157.966 31.1845 158.099 31.6093C158.248 32.0157 158.323 32.459 158.323 32.9391C158.323 33.8812 158.051 34.7215 157.507 35.4604C156.982 36.1807 156.25 36.7534 155.313 37.1781C154.394 37.5845 153.334 37.7876 152.134 37.7876Z" fill="white"></path></svg> 