<?xml version="1.0" encoding="UTF-8"?> <svg xmlns="http://www.w3.org/2000/svg" width="160" height="60" viewBox="0 0 160 60" fill="none"><path d="M43.9919 32.7669H43.9966C43.9966 23.5649 34.4936 17.1134 32.4133 12.6152C32.2119 12.1824 31.9065 11.9575 31.5847 11.9575C31.329 11.9575 31.0617 12.1018 30.8298 12.3951C27.9801 16.0059 27.6226 19.5899 28.1196 22.6139C28.4817 24.8044 29.2912 26.7038 29.9303 28.1122C30.522 29.4176 30.4959 30.1167 29.9776 30.1167C29.6556 30.1167 29.1445 29.8478 28.4746 29.288C27.1042 28.1391 25.7504 26.3299 24.8984 24.9121C24.8165 24.7751 24.736 24.6374 24.6569 24.4989C24.4084 24.0588 24.1055 23.8412 23.8072 23.8412C23.4924 23.8412 23.1871 24.0881 22.9741 24.5819C21.9352 26.9729 21.5847 30.618 21.5659 32.9354C21.564 33.0087 21.5632 33.0822 21.5636 33.1555C21.5636 39.5532 26.5861 44.741 32.7825 44.741C38.9764 44.741 43.9989 39.5532 43.9989 33.1555C43.9989 33.0259 43.9966 32.8964 43.9919 32.7669ZM32.7825 41.3184C28.4227 41.3184 24.8773 37.6562 24.8773 33.1555C24.8773 33.1212 24.8748 33.0846 24.8773 33.0455V32.9648C24.8773 32.8744 24.8795 32.7839 24.8819 32.6911V32.6396C24.8819 32.6249 24.8819 32.6103 24.8843 32.5981C24.9245 31.5518 25.573 31.2632 26.3754 31.9381C26.3801 31.9429 26.3848 31.9454 26.3896 31.9503C27.689 33.0356 28.8297 33.5393 29.9778 33.5393C31.2534 33.5393 32.4156 32.8866 33.0901 31.7938C34.3375 29.7647 33.2771 27.4276 32.9291 26.6599C32.2924 25.2542 31.6629 23.7214 31.3861 22.042C31.2913 21.465 31.244 20.905 31.244 20.3599C31.244 20.2255 31.2463 20.0911 31.2534 19.9565C31.251 19.9492 31.2534 19.9443 31.2534 19.937C31.2578 19.8227 31.2657 19.7085 31.2772 19.5947C31.2772 19.58 31.2772 19.5679 31.2795 19.5532C31.2842 19.4994 31.2914 19.4456 31.2984 19.3967C31.4571 18.3113 32.1671 18.1205 32.9245 18.9885C32.9245 18.9885 32.9268 18.9934 32.9292 18.9958C33.1918 19.3014 33.4641 19.6119 33.741 19.9297C36.7991 23.4257 40.2403 27.3592 40.6427 31.8891L40.6806 32.8964C40.683 32.9818 40.6853 33.0699 40.6853 33.1555C40.6853 37.6562 37.1399 41.3184 32.7825 41.3184Z" fill="white"></path><path d="M62.7037 20.9764V15.8916H56.5149C53.3715 15.8916 51.243 17.9933 51.243 21.2137V23.3493H49.2783V28.434H51.243V40.2985H56.3184V28.434H62.7037V23.3493H56.3184V22.0612C56.3184 21.3832 56.7769 20.9764 57.4645 20.9764H62.7037ZM72.9198 25.417H72.7888C71.8064 23.9595 70.0055 22.8408 67.7462 22.8408C63.2601 22.8408 60.1821 26.6713 60.1821 31.8917C60.1821 37.2476 63.4565 40.807 67.7462 40.807C70.0055 40.807 71.8064 39.6882 72.7888 38.2307H72.9198V40.2985H77.9624V23.3493H72.9198V25.417ZM69.1214 35.8579C66.9603 35.8579 65.3229 34.1969 65.3229 31.8239C65.3229 29.4509 66.9603 27.79 69.1214 27.79C71.3153 27.79 72.9198 29.5187 72.9198 31.8239C72.9198 34.0273 71.3807 35.8579 69.1214 35.8579ZM87.5416 22.8747C85.7079 22.8747 83.9724 23.7221 82.8919 25.2814H82.7608V23.3493H77.8164V40.2985H82.8919V31.3494C82.8919 29.2475 84.4635 28.0613 85.9697 28.0613C87.3123 28.0613 88.7203 29.0104 88.7203 31.1798V40.2985H93.7958V30.4679C93.7958 25.5188 91.4383 22.8747 87.5416 22.8747ZM107.464 27.756V23.3493H93.0567V28.434H100.522L92.7292 35.8917V40.2985H107.792V35.2137H99.6711L107.464 27.756ZM114.217 22.8408C109.174 22.8408 105.638 26.7391 105.638 31.8239C105.638 36.5697 108.519 40.807 114.118 40.807C118.015 40.807 121.388 38.7391 122.436 34.8748H117.164C116.64 35.7222 115.297 36.2646 114.053 36.1628C112.154 35.9935 111.073 34.8408 110.746 33.5526H122.534C123.189 27.3832 119.685 22.8408 114.217 22.8408ZM114.184 27.451C115.788 27.451 117.066 28.2306 117.524 29.6544H110.811C111.27 28.2984 112.547 27.451 114.184 27.451ZM129.305 22.8408C124.262 22.8408 120.726 26.7391 120.726 31.8239C120.726 36.5697 123.607 40.807 129.206 40.807C133.103 40.807 136.476 38.7391 137.524 34.8748H132.252C131.728 35.7222 130.385 36.2646 129.141 36.1628C127.242 35.9935 126.161 34.8408 125.834 33.5526H137.622C138.277 27.3832 134.773 22.8408 129.305 22.8408ZM129.272 27.451C130.877 27.451 132.153 28.2306 132.612 29.6544H125.899C126.358 28.2984 127.635 27.451 129.272 27.451Z" fill="white"></path></svg> 