<?xml version="1.0" encoding="UTF-8"?> <svg xmlns="http://www.w3.org/2000/svg" width="160" height="60" viewBox="0 0 160 60" fill="none"><g clip-path="url(#clip0_763_7918)"><path d="M6.01413 19L0 25.0144H9.52237L14.3671 19H6.01413Z" fill="#8F8F8F"></path><path d="M0 25.0151L14.3671 41.7219L9.52237 25.0151H0Z" fill="#7A7A7A"></path><path d="M22.7197 19L28.7338 25.0144H19.2114L14.3667 19H22.7197Z" fill="white"></path><path d="M28.7338 25.0151L14.3667 41.7219L19.2114 25.0151H28.7338Z" fill="#E6E6E6"></path><path d="M14.3666 41.7219L21.3831 25.0151H7.3501L14.3666 41.7219Z" fill="#B3B3B3"></path><path d="M21.3835 25.0144H7.35059L10.8588 19H17.8753L21.3835 25.0144Z" fill="#C6C6C6"></path><path d="M38.2827 25.4089V22.2109H52.0522V25.4089H47.1123V38.5028H43.2304V25.4089H38.2827Z" fill="white"></path><path d="M68.6074 30.357C68.6074 32.1494 68.2628 33.6689 67.5733 34.9151C66.8838 36.1616 65.9506 37.108 64.7733 37.755C63.6013 38.402 62.2862 38.7256 60.8279 38.7256C59.3641 38.7256 58.0464 38.3994 56.8745 37.7471C55.7025 37.0948 54.7717 36.1483 54.0824 34.9071C53.3983 33.6609 53.0562 32.1441 53.0562 30.357C53.0562 28.5644 53.3983 27.045 54.0824 25.7987C54.7717 24.5524 55.7025 23.6058 56.8745 22.9588C58.0464 22.3118 59.3641 21.9883 60.8279 21.9883C62.2862 21.9883 63.6013 22.3118 64.7733 22.9588C65.9506 23.6058 66.8838 24.5524 67.5733 25.7987C68.2628 27.045 68.6074 28.5644 68.6074 30.357ZM64.5823 30.357C64.5823 29.2963 64.4313 28.4 64.129 27.6682C63.8321 26.9363 63.4024 26.3821 62.8403 26.0056C62.2834 25.629 61.6126 25.4408 60.8279 25.4408C60.0483 25.4408 59.3774 25.629 58.8152 26.0056C58.2531 26.3821 57.8209 26.9363 57.5188 27.6682C57.2217 28.4 57.0732 29.2963 57.0732 30.357C57.0732 31.4176 57.2217 32.3139 57.5188 33.0457C57.8209 33.7776 58.2531 34.3318 58.8152 34.7084C59.3774 35.0848 60.0483 35.2731 60.8279 35.2731C61.6126 35.2731 62.2834 35.0848 62.8403 34.7084C63.4024 34.3318 63.8321 33.7776 64.129 33.0457C64.4313 32.3139 64.5823 31.4176 64.5823 30.357Z" fill="white"></path><path d="M84.7711 22.2109V38.5028H81.4302L74.9472 29.1H74.8439V38.5028H70.9062V22.2109H74.2948L80.7063 31.5978H80.8416V22.2109H84.7711Z" fill="white"></path><path d="M92.0601 38.5028V22.2109H98.7892C100.01 22.2109 101.062 22.4496 101.948 22.9269C102.838 23.3989 103.525 24.0592 104.008 24.9077C104.491 25.7509 104.732 26.732 104.732 27.851C104.732 28.9753 104.485 29.9591 103.992 30.8024C103.504 31.6403 102.806 32.29 101.9 32.7513C100.993 33.2128 99.9168 33.4435 98.67 33.4435H94.5181V30.341H97.9381C98.5327 30.341 99.0278 30.2375 99.4264 30.0308C99.8288 29.8239 100.134 29.5348 100.341 29.1636C100.547 28.7871 100.651 28.3496 100.651 27.851C100.651 27.3472 100.547 26.9124 100.341 26.5464C100.134 26.1752 99.8288 25.8888 99.4264 25.6873C99.0231 25.4858 98.527 25.385 97.9381 25.385H95.9973V38.5028H92.0601Z" fill="white"></path><path d="M114.555 33.2289V26.2842H118.437V38.503H114.731V36.228H114.603C114.333 36.9757 113.871 37.5697 113.219 38.0099C112.572 38.4447 111.79 38.6622 110.873 38.6622C110.039 38.6622 109.308 38.4712 108.677 38.0894C108.046 37.7075 107.555 37.1746 107.206 36.4904C106.856 35.801 106.678 34.9949 106.673 34.0722V26.2842H110.562V33.3085C110.568 33.9714 110.742 34.4938 111.088 34.8755C111.432 35.2574 111.901 35.4484 112.495 35.4484C112.883 35.4484 113.23 35.3635 113.538 35.1938C113.85 35.0187 114.097 34.7669 114.277 34.438C114.463 34.104 114.555 33.7009 114.555 33.2289Z" fill="white"></path><path d="M124.803 31.5344V38.503H120.913V26.2841H124.612V28.5274H124.747C125.018 27.7796 125.479 27.1936 126.131 26.7694C126.783 26.3398 127.561 26.125 128.462 26.125C129.321 26.125 130.066 26.3186 130.697 26.7057C131.333 27.0876 131.827 27.6232 132.177 28.3126C132.532 28.9968 132.707 29.7975 132.701 30.715V38.503H128.812V31.4788C128.817 30.7999 128.645 30.2696 128.294 29.8878C127.95 29.5058 127.471 29.315 126.855 29.315C126.446 29.315 126.086 29.4051 125.773 29.5855C125.466 29.7604 125.227 30.0124 125.057 30.3412C124.893 30.67 124.808 31.0677 124.803 31.5344Z" fill="white"></path><path d="M138.618 35.2969L138.634 30.6592H139.175L142.611 26.2839H147.018L141.911 32.5524H140.885L138.618 35.2969ZM135.11 38.5028V22.2109H139V38.5028H135.11ZM142.699 38.5028L139.501 33.4276L142.063 30.6672L147.193 38.5028H142.699Z" fill="white"></path><path d="M159.077 30.015L155.506 30.1104C155.469 29.8559 155.367 29.6305 155.203 29.4343C155.039 29.2327 154.824 29.0763 154.559 28.965C154.298 28.8482 153.996 28.7899 153.652 28.7899C153.201 28.7899 152.817 28.8801 152.499 29.0604C152.185 29.2408 152.032 29.4846 152.037 29.7922C152.032 30.0309 152.128 30.2378 152.324 30.4127C152.525 30.5878 152.883 30.7283 153.397 30.8343L155.752 31.2799C156.971 31.5132 157.878 31.9004 158.473 32.4413C159.072 32.9822 159.374 33.6981 159.38 34.5891C159.374 35.4271 159.125 36.1564 158.632 36.7769C158.143 37.3973 157.476 37.8798 156.627 38.2246C155.778 38.5639 154.808 38.7337 153.715 38.7337C151.97 38.7337 150.595 38.3756 149.587 37.6597C148.585 36.9386 148.012 35.9733 147.869 34.7642L151.711 34.6687C151.796 35.1142 152.016 35.4537 152.371 35.6869C152.727 35.9202 153.18 36.037 153.731 36.037C154.23 36.037 154.636 35.9442 154.949 35.7585C155.261 35.5728 155.42 35.3263 155.426 35.0187C155.42 34.743 155.298 34.5228 155.06 34.3584C154.821 34.1886 154.447 34.0562 153.938 33.9608L151.807 33.5549C150.582 33.3323 149.669 32.9212 149.07 32.3219C148.471 31.7174 148.174 30.9484 148.179 30.015C148.174 29.1982 148.391 28.5009 148.831 27.9228C149.271 27.3395 149.897 26.894 150.708 26.5864C151.52 26.2788 152.477 26.125 153.58 26.125C155.235 26.125 156.539 26.4724 157.494 27.1671C158.449 27.8565 158.976 28.8058 159.077 30.015Z" fill="white"></path></g><defs><clipPath id="clip0_763_7918"><rect width="160" height="22.7219" fill="white" transform="translate(0 19)"></rect></clipPath></defs></svg> 