<?xml version="1.0" encoding="UTF-8"?> <svg xmlns="http://www.w3.org/2000/svg" width="160" height="60" viewBox="0 0 160 60" fill="none"><g clip-path="url(#clip0_763_7888)"><path fill-rule="evenodd" clip-rule="evenodd" d="M94.145 23.4053H102.7C102.729 23.4046 102.758 23.4053 102.788 23.4053C105.324 23.4053 107.38 25.461 107.38 27.997C107.38 30.189 105.844 32.0219 103.79 32.4791L103.791 32.4881L101.509 33.1515L103.722 38.0956H100.642L98.2328 32.6723C97.982 32.108 98.2874 31.452 98.8809 31.2807L99.703 31.0434L99.7038 31.041L100.403 30.8414L100.467 30.8229L103.243 30.0308L103.242 30.0272C104.166 29.8174 104.855 28.9912 104.855 28.004C104.855 26.8871 103.973 25.9763 102.867 25.9311L102.867 25.9324H95.9363C95.535 25.9324 95.1711 25.6966 95.0071 25.3304L94.145 23.4053Z" fill="white"></path><path fill-rule="evenodd" clip-rule="evenodd" d="M124.662 23.4053H125.006H125.535L133.503 34.6162V23.4053H136.06V37.197L132.927 38.0953H132.888L125.006 27.003V38.0953H122.449V24.0401L124.662 23.4053Z" fill="white"></path><path fill-rule="evenodd" clip-rule="evenodd" d="M113.286 24.1325C113.286 23.7309 113.612 23.4053 114.013 23.4053H115.844V38.0953H113.286V24.1325Z" fill="white"></path><path fill-rule="evenodd" clip-rule="evenodd" d="M83.4614 23.4053H86.4002L92.5197 37.2032L89.9765 38.0953L83.4614 23.4053Z" fill="white"></path><path fill-rule="evenodd" clip-rule="evenodd" d="M46.666 23.4053H49.6049L56.12 38.0953H53.1811L46.666 23.4053Z" fill="white"></path><path fill-rule="evenodd" clip-rule="evenodd" d="M86.3701 23.4053H83.4311L76.916 38.0953H79.8548L86.3701 23.4053Z" fill="white"></path><path fill-rule="evenodd" clip-rule="evenodd" d="M49.4295 23.4053H46.4907L39.9756 38.0953H42.9145L49.4295 23.4053Z" fill="white"></path><path d="M101.49 33.1499L100.263 37.1315L101.081 38.9678L103.781 38.1132L101.49 33.1499Z" fill="white"></path><path fill-rule="evenodd" clip-rule="evenodd" d="M66.1775 38.1393C66.2222 38.1393 66.2667 38.1388 66.3112 38.1381C70.7817 38.1194 72.3275 37.297 72.3275 37.297V31.1918L69.7786 31.9226V35.3345C69.0434 35.4485 67.9162 35.5476 66.2163 35.5499C66.1961 35.5502 66.1759 35.5499 66.1556 35.5499C63.5048 35.5499 61.3558 33.4009 61.3558 30.7502C61.3558 28.1839 63.3699 26.0879 65.9037 25.957L65.9035 25.9529C67.9103 25.8426 70.7818 26.1422 71.736 26.3672V23.803C70.9671 23.6345 68.8796 23.3199 65.8626 23.4049L65.861 23.4118C61.9392 23.5777 58.8105 26.8096 58.8105 30.7723C58.8105 34.8409 62.1088 38.1393 66.1775 38.1393Z" fill="white"></path><path fill-rule="evenodd" clip-rule="evenodd" d="M29.5288 38.1393C29.5733 38.1393 29.618 38.1388 29.6623 38.1381C34.1329 38.1194 35.6787 37.297 35.6787 37.297V31.1918L33.1299 31.9226V35.3345C32.3945 35.4485 31.2675 35.5476 29.5676 35.5499C29.5473 35.5502 29.5271 35.5499 29.5067 35.5499C26.8559 35.5499 24.7069 33.4009 24.7069 30.7502C24.7069 28.1839 26.7211 26.0879 29.2548 25.957L29.2547 25.9529C31.2615 25.8426 34.1331 26.1422 35.0873 26.3672V23.803C34.3182 23.6345 32.2309 23.3199 29.2138 23.4049L29.2123 23.4118C25.2904 23.5777 22.1616 26.8096 22.1616 30.7723C22.1616 34.8409 25.4601 38.1393 29.5288 38.1393Z" fill="white"></path><path fill-rule="evenodd" clip-rule="evenodd" d="M142.334 11.6963C116.081 28.7556 86.9751 40.6136 55.3991 47.1651C35.3058 51.3342 24.3477 50.1303 19.2806 48.5378C15.6795 47.406 13.4847 45.3487 12.6044 43.1971C11.4822 40.4535 12.2504 37.663 14.9695 34.3825C13.1858 35.9611 11.0663 38.3507 10.2949 40.6564C9.78613 42.1769 9.98524 43.7033 10.515 44.9981C11.5332 47.4873 14.264 49.6578 18.317 50.887C22.3752 52.1178 27.5447 52.4084 34.9028 51.9677C52.8801 50.8912 77.6342 43.7785 94.3275 37.1404C95.3107 36.7493 96.2976 36.3581 97.2886 35.9652C111.287 30.4151 126.149 24.5221 144.259 14.1207L144.003 12.4708C143.938 12.0595 143.594 11.7503 143.178 11.7325L142.334 11.6963Z" fill="white"></path><path d="M149.064 8.17601C149.185 8.14765 149.283 8.2739 149.226 8.38429L148.41 9.96616C148.249 10.2809 148.261 10.6573 148.445 10.9601L149.368 12.4824C149.432 12.5886 149.342 12.7214 149.22 12.7013L147.462 12.4145C147.113 12.3574 146.76 12.486 146.528 12.7541L145.365 14.1014C145.284 14.1953 145.129 14.1511 145.11 14.0285L144.841 12.2693C144.787 11.9194 144.556 11.6224 144.229 11.4852L142.588 10.7955C142.474 10.7475 142.469 10.5874 142.58 10.5315L144.17 9.73113C144.485 9.572 144.696 9.25988 144.726 8.90703L144.875 7.13345C144.885 7.00982 145.037 6.95514 145.124 7.04328L146.376 8.30779C146.624 8.55926 146.986 8.6634 147.331 8.58253L149.064 8.17601Z" fill="white"></path></g><defs><clipPath id="clip0_763_7888"><rect width="140" height="45.1613" fill="white" transform="translate(10 7)"></rect></clipPath></defs></svg> 