<?xml version="1.0" encoding="UTF-8"?> <svg xmlns="http://www.w3.org/2000/svg" width="160" height="60" viewBox="0 0 160 60" fill="none"><mask id="mask0_763_7845" style="mask-type:luminance" maskUnits="userSpaceOnUse" x="20" y="7" width="119" height="47"><path d="M138.71 7H20V53.4516H138.71V7Z" fill="white"></path></mask><g mask="url(#mask0_763_7845)"><path d="M72.1436 19.8297H76.5812V37.5256H81.0191V15.4058H76.5812C74.1406 15.4058 72.1436 17.3965 72.1436 19.8297Z" fill="white"></path><path d="M85.4565 37.5257H89.8944V28.6778C89.8944 26.2447 87.8974 24.2539 85.4565 24.2539V37.5257Z" fill="white"></path><path d="M94.332 24.2539V37.5257H98.7699V28.6778H103.208V33.1018C103.208 35.535 105.205 37.5257 107.645 37.5257V28.6778C107.645 26.2447 105.648 24.2539 103.208 24.2539H94.332Z" fill="white"></path><path d="M134.272 24.2537H129.834V19.8297C129.834 17.3965 127.837 15.4058 125.396 15.4058V33.1017H116.521V28.6776H120.959V24.2537H116.521C114.08 24.2537 112.083 26.2445 112.083 28.6776V33.1017C112.083 35.5348 114.08 37.5256 116.521 37.5256H129.834V28.6776H134.272V33.1017C134.272 35.5348 136.269 37.5256 138.709 37.5256V28.6776C138.709 26.2445 136.712 24.2537 134.272 24.2537Z" fill="white"></path><path d="M85.4565 19.8297H89.8944C89.8944 17.3965 87.8974 15.4058 85.4565 15.4058V19.8297Z" fill="white"></path><path d="M79.0621 41.9492V44.8445H78.6555L77.0583 42.8386V44.8445H76.5811V41.9492H76.9877L78.5851 43.9635V41.9492H79.0621Z" fill="white"></path><path d="M88.0895 44.8445H86.3677V41.9492H88.0479V42.425H86.8781V43.1446H87.9236V43.6201H86.8781V44.3688H88.0895V44.8445Z" fill="white"></path><path d="M96.3363 42.425H95.3945V41.9492H97.7883V42.425H96.8465V44.8445H96.3363V42.425Z" fill="white"></path><path d="M108.649 41.9492H109.139L108.309 44.8445H107.832L107.131 42.7517L106.442 44.8445H105.961L105.094 41.9492H105.666L106.251 44.0132L106.899 41.9492H107.405L108.069 44.0173L108.649 41.9492Z" fill="white"></path><path d="M116.444 43.4424C116.444 43.0205 116.585 42.6661 116.867 42.3795C117.155 42.0926 117.518 41.9492 117.954 41.9492C118.391 41.9492 118.752 42.0872 119.037 42.3628C119.325 42.6413 119.469 43.0012 119.469 43.4424C119.469 43.8752 119.325 44.2323 119.037 44.5135C118.75 44.795 118.389 44.9355 117.954 44.9355C117.518 44.9355 117.156 44.7975 116.871 44.5219C116.587 44.2461 116.444 43.8863 116.444 43.4424ZM116.984 43.4424C116.984 43.7347 117.076 43.9774 117.262 44.1704C117.447 44.3633 117.678 44.4597 117.954 44.4597C118.253 44.4597 118.49 44.3633 118.664 44.1704C118.841 43.9774 118.929 43.7347 118.929 43.4424C118.929 43.1473 118.835 42.9032 118.647 42.7103C118.459 42.52 118.228 42.425 117.954 42.425C117.675 42.425 117.443 42.52 117.257 42.7103C117.075 42.9005 116.984 43.1446 116.984 43.4424Z" fill="white"></path><path d="M127.285 43.7692V44.8526H126.774V41.9575C126.918 41.9575 127.075 41.9562 127.243 41.9533C127.412 41.9506 127.55 41.9492 127.658 41.9492C128.361 41.9492 128.712 42.2471 128.712 42.8426C128.712 43.0633 128.655 43.2452 128.542 43.3886C128.428 43.5264 128.299 43.6201 128.152 43.6699L129.06 44.8526H128.442L127.642 43.7692H127.285ZM127.633 42.425C127.619 42.425 127.597 42.4263 127.567 42.429C127.536 42.429 127.494 42.4304 127.438 42.4331C127.383 42.4331 127.332 42.4331 127.285 42.4331V43.2934H127.617C127.78 43.2934 127.913 43.2535 128.015 43.1734C128.12 43.0935 128.173 42.9845 128.173 42.8467C128.173 42.5655 127.993 42.425 127.633 42.425Z" fill="white"></path><path d="M136.876 44.8445H136.365V41.9492H136.876V43.3224L138.02 41.9492H138.635L137.44 43.2977L138.709 44.8445H138.063L136.876 43.3513V44.8445Z" fill="white"></path><path fill-rule="evenodd" clip-rule="evenodd" d="M56.5997 15.1351C55.2373 14.2537 54.2671 13.872 54.2671 13.872C54.2671 13.872 54.904 13.8974 55.8164 13.9632C56.1667 13.9885 56.5579 14.0198 56.969 14.0578C57.2969 14.0882 57.6373 14.1229 57.9801 14.1623C57.3768 13.6894 56.778 13.2638 56.1849 12.8816C52.5915 10.5657 49.216 9.84376 46.404 9.84376C43.9221 9.84376 41.8804 10.4032 40.5149 10.9251C39.4144 11.3456 38.7531 11.7417 38.6543 11.8008L38.6499 11.8034L40.0697 9.55344L40.1758 8.45253C40.559 8.48926 40.8956 8.72132 41.0653 9.0657C41.1373 9.21167 41.1749 9.36899 41.1787 9.52655C42.5582 9.10057 44.3386 8.73778 46.404 8.73778C49.9207 8.73778 54.2049 9.79601 58.666 13.2929C59.0562 13.5988 59.195 14.1258 59.0059 14.5834C58.9072 14.8225 58.7315 15.0123 58.5158 15.1308C59.3193 15.7441 60.1815 16.495 61.0293 17.3988C64.1024 20.6751 66.9458 25.9247 66.1831 33.7571C66.1395 34.2036 65.8298 34.5797 65.399 34.7092C65.2018 34.7684 64.9972 34.7707 64.8062 34.7223C64.5573 38.0703 63.0931 43.6058 56.7898 48.3249C56.412 48.6079 55.8958 48.621 55.5038 48.3578C55.3451 48.2512 55.2209 48.1087 55.1371 47.9467C55.0738 48.0058 55.0091 48.065 54.9433 48.1244C53.1509 49.7417 50.4232 51.5092 46.7386 52.0199C46.6881 52.0269 46.637 52.0304 46.5859 52.0304H46.5495C46.0914 52.0304 45.6805 51.7498 45.515 51.3239C45.4877 51.2537 45.468 51.1821 45.4556 51.1097C44.5465 51.2899 43.4771 51.4136 42.2539 51.4136C40.1953 51.4136 37.7052 51.0644 34.7881 50.0448C34.2306 49.8499 33.9241 49.2536 34.0909 48.6886C34.2579 48.1236 34.8397 47.7882 35.4142 47.9254C36.2401 48.1232 37.0633 48.2216 37.9219 48.2216C43.5052 48.2216 47.8792 44.067 47.8792 39.0938C47.8792 36.6423 46.8362 34.3939 45.0797 32.7342C45.0749 32.7404 45.07 32.7468 45.0652 32.753C44.6642 33.2696 44.1811 33.8939 43.8389 34.3426C43.2853 35.117 43.0912 35.5451 43.1349 35.933C43.3238 37.1947 42.9338 38.4354 42.2146 39.3435C42.2053 39.3553 42.1958 39.3667 42.1862 39.3781C41.9015 39.7091 41.3605 40.1794 40.8784 40.5985C40.8563 40.6176 40.8346 40.6366 40.8127 40.6556C40.3273 41.0777 39.8524 41.4915 39.5073 41.8354C39.4982 41.8445 39.4891 41.8532 39.4798 41.8619C38.6201 42.6617 37.4982 42.7763 36.8298 42.7763C36.6446 42.7763 36.4781 42.7623 36.3654 42.7528L36.3593 42.7525C36.3577 42.7523 36.3562 42.7523 36.3546 42.7521C36.2441 42.7428 36.2023 42.7401 36.1746 42.7401H36.0653C36.047 42.7401 36.0331 42.7405 36.0229 42.7408C36.0022 42.7538 35.9652 42.779 35.9055 42.8256C35.8241 42.8893 35.7212 42.9764 35.5786 43.1018C35.3055 43.3573 34.9786 43.469 34.7599 43.5236C34.5062 43.5868 34.2397 43.611 33.9903 43.611C33.3425 43.611 32.5998 43.4665 31.9894 43.3155C31.3616 43.1601 30.7901 42.9768 30.454 42.8585C30.4422 42.8543 30.4305 42.85 30.4189 42.8456C30.0991 42.7207 29.8596 42.5099 29.6963 42.3361C29.5246 42.1534 29.3757 41.945 29.2484 41.7414C28.994 41.3341 28.7675 40.8505 28.58 40.3892C28.2182 39.4991 27.9162 38.477 27.8633 37.9757C27.8282 37.643 27.9096 37.3273 27.9701 37.1301C28.0398 36.903 28.1366 36.6661 28.2375 36.442C28.4363 36.0009 28.6972 35.5089 28.922 35.0852L28.9315 35.0672C29.0908 34.767 29.2305 34.5032 29.3382 34.2828C29.3917 34.1734 29.4315 34.0861 29.459 34.0194C29.4781 33.9731 29.4858 33.9497 29.4876 33.9445C29.5485 33.6576 29.7382 32.2521 29.932 30.7385C30.1228 29.2484 30.3044 27.7643 30.3402 27.4604C30.3703 27.2057 30.3659 27.0818 30.3401 26.9641C30.3121 26.8366 30.2401 26.6363 30.0211 26.2777C30.019 26.2742 30.0169 26.2708 30.0149 26.2673C30.0141 26.266 30.0133 26.2647 30.0126 26.2634C29.5277 25.4416 29.5032 24.6336 29.7074 23.645C27.2304 21.9299 20.9361 17.2957 20.5466 16.978C20.544 16.9759 20.5414 16.9738 20.5389 16.9716C20.3084 16.7802 20.074 16.4966 20.0029 16.1066C19.9676 15.9134 19.9805 15.7312 20.022 15.5723C20.0423 15.495 20.0684 15.4267 20.096 15.3678C20.1098 15.3384 20.1241 15.3113 20.1382 15.2864C20.1453 15.274 20.1524 15.2621 20.1595 15.2507C20.163 15.245 20.1665 15.2395 20.17 15.234C20.1717 15.2313 20.1735 15.2287 20.1752 15.226L20.1778 15.2221L20.1791 15.2201C20.1798 15.2191 20.1804 15.2182 21.1035 15.8317C21.1035 15.8317 21.0307 15.9405 21.2491 16.122C21.2668 16.1364 21.2987 16.1612 21.3436 16.1955C21.3508 16.201 21.3583 16.2068 21.3661 16.2127C21.4786 16.2984 21.6588 16.4334 21.8927 16.6076C22.2084 16.8425 22.6221 17.1487 23.0999 17.5008C25.578 19.3271 29.7794 22.389 30.9688 23.1623C30.6048 24.4688 30.6048 25.0857 30.9688 25.7026C31.4784 26.5374 31.5149 26.9727 31.442 27.5897C31.3693 28.2067 30.714 33.5413 30.5684 34.1945C30.5096 34.4581 30.2255 34.9939 29.9123 35.5844C29.4495 36.4565 28.9232 37.4487 28.9666 37.8599C29.0394 38.5494 29.9859 41.4888 30.8232 41.8155C31.442 42.0332 32.9711 42.5051 33.9903 42.5051C34.3543 42.5051 34.6819 42.4325 34.8276 42.2874C35.4464 41.7429 35.6285 41.6341 36.0653 41.6341H36.1746C36.2579 41.6341 36.3489 41.6417 36.4474 41.6498C36.5642 41.6597 36.6917 41.6703 36.8298 41.6703C37.4123 41.6703 38.1767 41.5616 38.7227 41.0535C39.1002 40.677 39.6071 40.2361 40.0835 39.8221C40.6175 39.3578 41.1129 38.9268 41.3438 38.6583C41.8898 37.9687 42.1811 37.0252 42.0356 36.0816C41.9262 35.2107 42.3995 34.4487 42.9456 33.6865C43.6372 32.7791 44.9113 31.1461 44.9113 31.1461C45.0002 31.2129 45.0876 31.2808 45.174 31.3499C45.377 31.5123 45.5735 31.6813 45.7626 31.8567C47.7718 33.7167 48.9886 36.2783 48.9886 39.0938C48.9886 43.9947 45.2781 48.0799 40.3136 49.0887C39.5435 49.2452 38.7432 49.3275 37.9219 49.3275C36.9754 49.3275 36.0653 49.2187 35.1552 49.001C36.1303 49.3418 37.0526 49.6037 37.9219 49.8001C38.7859 49.9954 39.5978 50.1263 40.3575 50.206C41.0305 50.2768 41.6628 50.3074 42.2539 50.3074C43.8249 50.3074 45.1146 50.0905 46.1086 49.8222C47.7172 49.3879 48.5516 48.8196 48.5516 48.8196C48.5516 48.8196 48.336 49.096 47.9483 49.5239C47.6301 49.8748 47.1964 50.3276 46.6709 50.8132C46.6428 50.8391 46.6146 50.865 46.5859 50.8912C46.5846 50.8925 46.5832 50.8937 46.5816 50.895C46.571 50.9049 46.5604 50.9146 46.5495 50.9245H46.5859C47.2771 50.8287 47.9324 50.6848 48.5516 50.5041C51.7128 49.5807 53.9404 47.6889 55.2596 46.2532C56.2271 45.2001 56.706 44.392 56.706 44.392C56.706 44.392 56.6218 44.9928 56.4876 45.7379C56.4282 46.0674 56.3593 46.4252 56.2836 46.7719C56.2329 47.0038 56.1793 47.2306 56.1236 47.4406C56.6154 47.0723 57.076 46.6991 57.5075 46.3225C62.8399 41.6661 63.702 36.4844 63.7399 33.7664C63.7417 33.6418 63.7416 33.5221 63.7405 33.4081C63.7405 33.4087 63.7405 33.4076 63.7405 33.4081L63.7403 33.4062C63.7403 33.4064 63.7403 33.406 63.7403 33.4062C63.7403 33.4056 63.7403 33.4043 63.7403 33.4037C63.7403 33.4018 63.7403 33.3992 63.7401 33.3975C63.7298 32.5927 63.6509 32.0628 63.628 31.9099L63.6253 31.8903C63.6242 31.8824 63.6232 31.8764 63.6226 31.8719C63.6255 31.8762 63.6296 31.8818 63.6348 31.889C63.6387 31.8942 63.6433 31.9002 63.6484 31.907C63.7115 31.989 63.8665 32.1787 64.0589 32.4123C64.1696 32.5467 64.2925 32.6957 64.4175 32.847L64.4193 32.849C64.5652 33.0255 64.7136 33.2053 64.8484 33.3688C64.9318 33.4703 65.01 33.5657 65.0789 33.6501C65.1259 33.166 65.1586 32.6926 65.178 32.2296C65.178 32.2285 65.1782 32.2271 65.1782 32.2259C65.1782 32.2254 65.1782 32.2246 65.1782 32.224C65.1782 32.2236 65.1784 32.2215 65.1784 32.2211C65.1784 32.2215 65.1784 32.2207 65.1784 32.2211C65.1809 32.1598 65.1832 32.0972 65.1851 32.0365C65.5116 22.3458 59.903 17.272 56.5997 15.1351ZM31.7565 13.1309C31.7825 13.2184 31.8097 13.3083 31.8378 13.3999C31.999 13.9251 32.191 14.5047 32.3886 14.997C32.5738 14.443 32.7905 13.945 33.0312 13.4973C34.5912 10.5962 37.1611 9.80693 38.7263 9.60537C39.5307 9.50178 40.0697 9.55344 40.0697 9.55344C40.1758 8.45253 40.1766 8.4526 40.1758 8.45253L40.1733 8.45229L40.1702 8.45199L40.1622 8.45129C40.1591 8.45102 40.1556 8.45072 40.1516 8.45039C40.1481 8.4501 40.1444 8.4498 40.1404 8.44948C40.1229 8.44812 40.1001 8.44648 40.072 8.4448C40.0161 8.44144 39.9393 8.43789 39.844 8.43599C39.6538 8.43217 39.3884 8.43488 39.0673 8.45911C38.4276 8.50738 37.5502 8.64223 36.5969 8.99176C35.2401 9.48933 33.7587 10.4146 32.6064 12.0715C32.5889 12.0079 32.5729 11.9495 32.5587 11.897C32.5334 11.8032 32.5135 11.7287 32.5003 11.678C32.4937 11.6527 32.4886 11.6334 32.4853 11.6207L32.4817 11.6066L32.4807 11.6028C32.3854 11.2302 32.1027 10.9336 31.7344 10.8197C31.3658 10.7057 30.9645 10.7908 30.6744 11.0443L31.4057 11.876C30.6744 11.0443 30.6748 11.0439 30.6744 11.0443L30.6725 11.0459L30.6704 11.0478L30.6653 11.0523C30.6616 11.0556 30.6571 11.0596 30.652 11.0643C30.6417 11.0736 30.6287 11.0855 30.6131 11.1001C30.5821 11.1292 30.5409 11.1688 30.4915 11.2187C30.3929 11.3185 30.2606 11.4603 30.1102 11.6424C29.8102 12.0056 29.4314 12.5368 29.1029 13.2235C28.6334 14.2048 28.2731 15.4938 28.3806 17.0301C27.16 16.591 25.8957 16.1408 24.805 15.7554C23.9757 15.4624 23.2452 15.2064 22.7097 15.0211C22.4423 14.9285 22.2213 14.8528 22.06 14.7986C21.9798 14.7717 21.9109 14.7489 21.857 14.7317C21.8555 14.7312 21.8537 14.7307 21.8515 14.7299C21.8224 14.7206 21.7301 14.6908 21.6487 14.6746C21.6286 14.6706 21.6084 14.6671 21.588 14.6642C21.2874 14.6214 20.9864 14.6509 20.7127 14.7749C20.5799 14.8351 20.469 14.9108 20.3791 14.991C20.3346 15.0307 20.2963 15.0705 20.2633 15.109C20.2469 15.1282 20.2318 15.147 20.218 15.1653C20.2111 15.1744 20.2046 15.1834 20.1983 15.1922C20.1952 15.1966 20.1921 15.201 20.1891 15.2053L20.1847 15.2118L20.1825 15.215C20.182 15.2158 20.1804 15.2182 21.1035 15.8317C21.1035 15.8317 21.1763 15.7228 21.4311 15.7591C21.443 15.7614 21.4746 15.7709 21.5242 15.7868C21.5256 15.7872 21.5269 15.7877 21.5282 15.7881C21.6513 15.8276 21.8807 15.9054 22.1924 16.0129C22.566 16.1417 23.0576 16.3132 23.6257 16.5129C25.0179 17.0022 26.8689 17.6604 28.5645 18.2724C29.0038 18.4308 29.4326 18.5863 29.8403 18.7349C29.6957 18.2872 29.5984 17.8581 29.5402 17.4486C29.2509 15.4154 29.9243 13.8664 30.5413 12.9238C30.9883 12.2407 31.4057 11.876 31.4057 11.876C31.4057 11.876 31.5461 12.4254 31.7565 13.1309Z" fill="white"></path><path d="M40.324 37.751C40.2119 37.8908 39.819 38.2459 39.4447 38.5841C39.3331 38.6851 39.2231 38.7844 39.1228 38.8761C38.971 39.0149 38.8148 39.1535 38.6603 39.2907C38.3702 39.5483 38.0861 39.8007 37.8486 40.0374C37.703 40.1826 37.4118 40.2552 36.9749 40.2552H35.8828C36.1018 39.9643 36.4903 39.5216 36.9125 39.0722C37.1453 38.8574 37.3804 38.652 37.5937 38.4768C37.9671 38.1689 38.3403 37.9608 38.6669 37.7787C39.264 37.4458 39.7052 37.1996 39.7052 36.5897C39.7283 35.353 38.8958 35.1135 38.2784 35.1052C38.4625 35.0626 38.67 35.0294 38.8679 35.0294C38.1762 34.8478 37.3025 35.0294 36.9021 35.4284C36.6109 35.6946 36.5462 36.4124 36.4814 37.1301C36.4491 37.489 36.4167 37.8478 36.356 38.1503C36.1931 38.9952 35.6797 39.4618 34.8945 40.1756L34.891 40.1787C34.8005 40.2612 34.7063 40.3467 34.6087 40.4365C34.5858 40.4578 34.5632 40.4783 34.5409 40.4983L32.1333 39.9648C32.1333 39.9648 33.735 39.1301 33.9898 38.1865C34.218 37.374 33.6286 34.873 33.477 34.2294C33.4593 34.1545 33.4476 34.1046 33.4438 34.0858C33.446 34.0879 33.4509 34.0924 33.4581 34.099C33.5684 34.1996 34.2285 34.8015 34.5359 35.7552C35.1184 34.1584 35.8828 32.6342 36.1012 32.4888C36.2889 32.3642 38.492 31.1948 39.1088 30.8677C38.8392 31.5974 38.5809 32.3197 38.3946 32.8519C37.7394 33.0335 37.0842 33.3962 36.6109 34.122C36.8657 33.9406 37.6666 33.8317 38.2491 33.7591C38.7586 33.7229 40.324 34.5575 40.7244 36.1181V36.1906C40.7972 36.7713 40.6153 37.3155 40.324 37.751Z" fill="white"></path><path d="M39.0884 32.7783C39.8353 32.7104 40.4542 32.8604 40.6157 32.9246C42.0353 30.2392 43.1639 28.7875 43.4552 28.7875C43.486 28.7837 43.5526 28.786 43.6488 28.7893C44.4572 28.817 47.3477 28.9163 48.5515 26.0295C49.8425 22.8838 48.0251 20.1958 47.9008 20.012L47.8964 20.0054C49.4252 25.0134 46.0397 27.8076 43.7463 27.844C42.4722 27.844 40.7612 28.6786 40.7612 28.6786L39.0884 32.7783Z" fill="white"></path><path d="M47.8965 20.0054L47.9021 20.0081C48.0595 20.0842 50.7792 21.3995 51.5633 25.4811C53.3722 27.5858 54.5064 30.2142 54.8131 32.9972C54.8131 33.1788 55.0678 33.4327 55.3227 33.6505C55.6504 33.977 55.9779 34.3037 55.9779 34.6304C55.9779 35.5014 55.9051 36.3723 55.7596 37.2069C55.6951 37.4639 55.4025 37.6356 55.0837 37.8226L55.0529 37.8408C55.0405 37.8479 55.0282 37.8553 55.0158 37.8626C54.9968 37.8737 54.9776 37.8851 54.9587 37.8965C54.9093 37.9292 54.8542 37.9641 54.798 37.9995C54.6066 38.1203 54.4045 38.2476 54.3763 38.3318C53.635 40.9515 52.0833 43.2913 50.0095 45.0638C53.4329 43.1434 56.0141 39.9148 57.0802 36.0752C57.4338 34.5625 57.4942 32.9779 57.2158 31.3641C55.9051 23.9609 48.3333 20.1869 47.8965 20.0054Z" fill="white"></path><path d="M39.1484 20.3702C39.8206 20.4041 41.2585 20.3355 42.6182 19.3521C42.7564 19.6736 42.8934 19.9973 43.0252 20.3136C41.3529 20.7609 39.8533 20.5304 39.1484 20.3702Z" fill="white"></path><path d="M44.1683 19.9023C45.0741 19.4867 45.9894 18.8362 46.8228 17.8412C46.0173 17.6113 45.1839 17.4474 44.329 17.356C44.0743 17.7552 43.8194 18.118 43.5645 18.4084C43.7152 18.7791 43.9326 19.3157 44.1683 19.9023Z" fill="white"></path><path d="M51.4276 31.2551C51.7915 29.4042 51.8279 27.8076 51.7187 26.501C53.1386 28.3883 54.0123 30.6745 54.267 33.0334C54.3034 33.3237 54.5946 33.6141 54.8859 33.9044C55.1406 34.1219 55.4319 34.4123 55.4319 34.5938C55.4319 35.4286 55.359 36.2632 55.2134 37.0979C55.179 37.2011 54.8828 37.3695 54.6351 37.5104L54.5946 37.5332C54.2306 37.7148 53.9029 37.8961 53.8301 38.1865C53.0292 40.9809 51.3183 43.4487 49.0249 45.1906C52.4105 41.6703 54.0486 35.8639 51.4276 31.2551Z" fill="white"></path><path fill-rule="evenodd" clip-rule="evenodd" d="M35.3004 17.4649C35.3004 17.4649 34.6452 12.7834 37.9215 10.8237C37.9099 10.8287 37.8876 10.837 37.8559 10.8489C37.1859 11.1 32.3118 12.9265 35.3004 17.4649ZM42.3628 13.1827C44.8746 12.2391 48.3693 11.731 53.7933 12.7472C51.3908 11.5496 48.879 10.9327 46.3671 10.8964C45.4206 10.8964 44.5469 10.9689 43.746 11.1141C40.9067 11.6222 38.5768 13.6544 37.7759 16.3762C37.7759 16.3762 38.3584 15.4689 39.7417 14.5254L39.7994 14.4473C40.3106 13.7556 41.0805 12.7136 41.8168 11.8399C42.0351 12.3117 42.29 12.8923 42.3628 13.1827ZM54.9583 19.2068C60.0912 22.5817 62.421 26.3196 64.0591 30.7107C63.9864 26.0656 62.421 22.0737 59.3995 18.8802L59.3267 18.8075C56.6693 16.0132 52.7741 14.7068 48.9153 15.2511C47.4593 15.4326 46.003 15.7229 44.8746 16.0858C44.6927 16.1221 44.5106 16.1584 44.3284 16.231H44.4014C44.6927 16.1947 50.0075 15.9406 54.9583 19.2068ZM59.6908 42.2874C59.1448 43.0132 58.5258 43.7754 57.7979 44.501C62.4939 35.501 58.0162 27.2632 57.8342 26.9367C58.1617 27.2632 58.4894 27.6261 58.7807 27.9526C62.3846 31.9448 62.8214 37.9326 59.6908 42.2874ZM30.9595 14.3786C30.8213 14.9043 29.5941 19.5737 33.7351 19.7149C31.2598 18.227 30.9685 14.3802 30.9685 14.3439L30.9665 14.3518L30.9641 14.3611L30.9595 14.3786ZM38.1763 24.1061L36.2834 27.336C36.2834 27.336 38.0308 26.5374 38.7224 25.5213C39.2685 24.6504 38.1763 24.1061 38.1763 24.1061ZM36.9127 39.0722C37.1454 38.8575 37.3805 38.652 37.5939 38.4768C37.9671 38.1689 38.3404 37.9608 38.667 37.7787C39.2641 37.4458 39.7051 37.1996 39.7051 36.5899C39.7282 35.3532 38.8958 35.1137 38.2785 35.1052C38.288 35.1031 38.2976 35.101 38.3071 35.0988C37.9696 35.1739 37.703 35.2835 37.703 35.2835C37.703 35.2835 38.7588 35.1019 39.1592 35.8641C39.5596 36.6261 39.2321 37.0616 38.5768 37.4971C38.2497 37.7145 37.5436 38.401 36.9127 39.0722ZM40.3605 27.8803C40.1927 28.0237 39.6297 29.459 39.1089 30.8679C38.4922 31.1948 36.2891 32.3644 36.1014 32.489C35.8829 32.6342 35.1185 34.1584 34.536 35.7552C34.2285 34.8015 33.5685 34.1996 33.4582 34.099C33.451 34.0924 33.4461 34.0879 33.4439 34.0858C33.4477 34.1048 33.4595 34.1545 33.4771 34.2294C33.6287 34.873 34.2182 37.374 33.99 38.1865C33.7351 39.1301 32.1333 39.9648 32.1333 39.9648L34.541 40.4983C34.0666 40.9212 33.722 41.0535 33.4439 41.0535C32.8251 40.9448 32.0969 40.7632 31.5873 40.5819C31.2233 40.11 30.6773 38.5496 30.5316 37.8964C30.6102 37.6353 30.8584 37.1675 31.0728 36.7634C31.1562 36.6062 31.2349 36.4577 31.296 36.3358L31.3567 36.2199C31.7566 35.4567 31.9912 35.0088 32.0606 34.5939C32.2062 33.977 32.6794 30.1665 32.8615 28.5697C33.3346 29.1867 33.99 30.2028 33.8443 30.8559C34.9001 29.3681 34.1355 27.9165 33.7715 27.3358C33.4439 26.7552 33.007 25.5939 33.3711 24.36C33.7351 23.1262 35.0456 19.7149 35.0456 19.7149C35.0456 19.7149 35.4825 20.477 36.1014 20.3318C36.7202 20.1867 41.7074 12.7108 41.7074 12.7108C41.7074 12.7108 43.0545 15.6503 41.6346 17.7915C40.1786 19.9326 38.7588 20.3318 38.7588 20.3318C38.7588 20.3318 38.9022 20.3578 39.1477 20.3702C39.8528 20.5302 41.3522 20.7607 43.0247 20.3134C43.6226 21.7471 44.1167 23.0269 44.1465 23.235C44.1279 23.2779 44.0712 23.4129 43.9888 23.6085L43.988 23.6106C43.5815 24.5757 42.5565 27.0097 42.4355 27.1906C42.3628 27.2632 41.8531 27.4084 41.4891 27.481C40.8701 27.6623 40.506 27.7713 40.3605 27.8803ZM41.3433 14.8882C41.3433 14.8882 41.671 16.3398 40.8337 17.3197C39.7781 18.5172 38.8681 18.4809 38.9045 18.4809L41.3433 14.8882ZM32.9342 35.5012L32.643 36.9528C32.643 36.9528 33.2255 36.8803 33.2255 37.5335C33.2255 38.0415 32.643 38.731 32.1698 38.7674C31.6966 38.8035 31.5145 38.2229 31.6238 37.8964C31.7329 37.6061 32.9342 35.5012 32.9342 35.5012ZM38.5039 23.3801C39.7781 23.6342 40.1422 25.1221 39.4504 25.9205C38.7588 26.6826 37.0114 27.7713 35.9922 28.0252C35.7737 28.86 33.9172 28.4971 34.6088 25.8479C34.6088 25.8479 34.9364 27.1181 35.2641 27.0093C35.5917 26.9003 39.3048 21.0939 39.3048 21.0939C39.3048 21.0939 38.8316 22.6181 38.5039 23.3801ZM37.2122 36.8905C37.1925 37.2418 37.1601 37.8155 36.9023 38.1867C36.9275 38.1614 37.006 38.0789 37.1081 37.9713C37.2991 37.7702 37.5735 37.4812 37.7395 37.3157C37.8528 37.2139 37.9803 37.1334 38.1021 37.0564C38.3715 36.8861 38.6132 36.7334 38.6132 36.4084C38.6132 35.9003 37.9215 35.7914 37.6303 35.8641C37.339 35.9367 37.2663 36.4084 37.2299 36.6623C37.2221 36.7165 37.2177 36.7953 37.2122 36.8905ZM54.121 38.2955C53.3201 41.1625 51.5 43.7028 49.1339 45.5174C49.4311 45.3755 49.723 45.2241 50.0091 45.0637C52.0829 43.2912 53.6346 40.9514 54.3759 38.3319C54.404 38.2477 54.6062 38.1199 54.7975 37.9994C54.8536 37.9641 54.9088 37.9291 54.9583 37.8962C54.9693 37.8896 54.9806 37.883 54.9918 37.8763L55.0154 37.8623C55.0278 37.8552 55.0402 37.8478 55.0526 37.8405L55.0833 37.8225C55.4021 37.6355 55.6948 37.4636 55.7592 37.2068C55.9048 36.372 55.9775 35.501 55.9775 34.6301C55.9775 34.3035 55.6499 33.977 55.3224 33.6503C55.0675 33.4326 54.8126 33.1785 54.8126 32.9971C54.506 30.2141 53.3718 27.5855 51.5629 25.4811C51.5791 25.5659 51.5946 25.6518 51.6091 25.7391C53.2473 27.8077 54.303 30.3116 54.5942 32.9609C54.5942 33.0964 54.757 33.2727 54.9151 33.444C54.9686 33.5019 55.0216 33.5592 55.0675 33.6141C55.3951 33.9406 55.7226 34.2674 55.7226 34.5939C55.7226 35.4648 55.6499 36.3358 55.5043 37.1706C55.4315 37.4609 55.0675 37.6786 54.7034 37.86C54.6542 37.8927 54.5995 37.9274 54.5437 37.9626C54.3527 38.0832 54.1493 38.2113 54.121 38.2955ZM47.8961 20.0052C48.3357 20.188 55.905 23.9623 57.2153 31.3641C57.4938 32.9777 57.4334 34.5623 57.0796 36.0749C57.4291 34.8163 57.6157 33.4918 57.6157 32.1261C57.6157 25.3461 53.0491 19.6188 46.8223 17.8413C45.9889 18.8362 45.0736 19.4867 44.1678 19.9023C44.7858 21.4403 45.5298 23.3214 45.5298 23.4528C45.5298 23.6706 44.8382 25.4488 44.7655 25.5213C44.6925 25.5576 43.8554 25.6302 43.5275 25.6302C43.1637 26.501 42.7996 27.3358 42.7268 27.4448C42.6175 27.5899 42.29 27.6987 41.5982 27.8803C41.5243 27.9023 41.4428 27.9259 41.3592 27.9501C41.0319 28.0452 40.6733 28.1489 40.6154 28.2068C40.4333 28.4245 39.4504 31.0012 38.7952 32.8157C38.8945 32.7991 38.9923 32.7869 39.0882 32.7782L40.7609 28.6785C40.7609 28.6785 42.4719 27.8439 43.746 27.8439C46.0394 27.8075 49.425 25.0132 47.8961 20.0052ZM32.7159 22.0012C32.9706 21.5294 32.7523 21.2028 32.5338 21.0213L32.4611 20.9487C32.0242 20.7309 29.2939 19.7149 26.6001 18.7713C28.9663 20.3318 31.5874 21.856 32.0242 22.0737C32.3518 22.2189 32.5702 22.2552 32.7159 22.0012Z" fill="white"></path></g></svg> 