<?xml version="1.0" encoding="UTF-8"?> <svg xmlns="http://www.w3.org/2000/svg" width="160" height="60" viewBox="0 0 160 60" fill="none"><path d="M49.8396 37.7236V25.8193H45.2769V23.2036H57.5799V25.8193H53.0172V37.7236H49.8396Z" fill="white"></path><path d="M58.0264 30.4532C58.0264 28.943 58.3048 27.6316 58.8614 26.5195C59.4318 25.3936 60.2465 24.5217 61.3057 23.9038C62.3651 23.286 63.6211 22.9771 65.0742 22.9771C66.5272 22.9771 67.7833 23.286 68.8425 23.9038C69.9017 24.5217 70.7164 25.3936 71.2868 26.5195C71.8707 27.6316 72.1627 28.9361 72.1627 30.4327C72.1627 31.9567 71.8707 33.2817 71.2868 34.4076C70.7164 35.5198 69.9017 36.3918 68.8425 37.0233C67.7833 37.6412 66.5272 37.9502 65.0742 37.9502C63.6211 37.9502 62.3651 37.6412 61.3057 37.0233C60.2601 36.3918 59.4521 35.5131 58.8819 34.3871C58.3115 33.2612 58.0264 31.9499 58.0264 30.4532ZM61.3465 30.4532C61.3465 31.9499 61.6521 33.1239 62.2632 33.9751C62.8878 34.8127 63.8248 35.2315 65.0742 35.2315C66.2963 35.2315 67.2265 34.8127 67.8648 33.9751C68.503 33.1239 68.822 31.9499 68.822 30.4532C68.822 28.943 68.503 27.7758 67.8648 26.9521C67.2401 26.1145 66.3099 25.6957 65.0742 25.6957C63.8248 25.6957 62.8878 26.1145 62.2632 26.9521C61.6521 27.7758 61.3465 28.943 61.3465 30.4532Z" fill="white"></path><path d="M74.6465 37.7236V23.2036H77.0094L84.8108 33.2337H84.2607V23.2036H87.2143V37.7236H84.8514L77.0703 27.6936H77.6001V37.7236H74.6465Z" fill="white"></path><path d="M99.9045 37.7236L94.812 23.2036H98.0915L101.738 34.4076H100.862L104.834 23.2036H107.156L110.802 34.4076H109.987L113.857 23.2036H116.933L111.8 37.7236H109.213L105.689 27.4051H106.158L102.512 37.7236H99.9045Z" fill="white"></path><path d="M121.362 37.9502C120.466 37.9502 119.678 37.7306 118.999 37.2912C118.32 36.8518 117.791 36.227 117.411 35.417C117.03 34.6069 116.84 33.632 116.84 32.4923C116.84 31.3664 117.03 30.3984 117.411 29.5883C117.791 28.7782 118.32 28.1603 118.999 27.7347C119.678 27.2954 120.466 27.0757 121.362 27.0757C122.191 27.0757 122.931 27.2816 123.583 27.6936C124.248 28.0917 124.683 28.6341 124.886 29.3206H124.662L124.907 27.2816H127.86C127.819 27.7347 127.779 28.1947 127.738 28.6616C127.711 29.1146 127.697 29.5608 127.697 30.0003V37.7237H124.642L124.621 35.767H124.866C124.648 36.4261 124.214 36.9547 123.562 37.353C122.91 37.751 122.177 37.9502 121.362 37.9502ZM122.299 35.6022C123.005 35.6022 123.576 35.3483 124.01 34.8403C124.445 34.3322 124.662 33.5496 124.662 32.4923C124.662 31.435 124.445 30.6594 124.01 30.165C123.576 29.6707 123.005 29.4235 122.299 29.4235C121.593 29.4235 121.023 29.6707 120.588 30.165C120.154 30.6594 119.936 31.435 119.936 32.4923C119.936 33.5496 120.147 34.3322 120.568 34.8403C121.002 35.3483 121.58 35.6022 122.299 35.6022Z" fill="white"></path><path d="M130.22 37.7234V22.5649H133.295V37.7234H130.22Z" fill="white"></path><path d="M135.81 37.7234V22.5649H138.885V37.7234H135.81Z" fill="white"></path><path d="M146.593 37.9502C144.801 37.9502 143.402 37.4627 142.397 36.4878C141.393 35.513 140.89 34.188 140.89 32.513C140.89 31.4282 141.101 30.4808 141.521 29.6707C141.956 28.8606 142.553 28.229 143.314 27.7758C144.088 27.3091 144.991 27.0757 146.023 27.0757C147.042 27.0757 147.89 27.2954 148.569 27.7347C149.262 28.1741 149.778 28.792 150.117 29.5883C150.47 30.371 150.647 31.284 150.647 32.3275V33.0485H143.416V31.5037H148.406L148.06 31.7922C148.06 30.927 147.884 30.2749 147.53 29.8355C147.191 29.3824 146.695 29.1558 146.044 29.1558C145.324 29.1558 144.767 29.4235 144.373 29.959C143.993 30.4946 143.803 31.2635 143.803 32.2658V32.5954C143.803 33.6114 144.047 34.3666 144.536 34.8608C145.039 35.3552 145.758 35.6022 146.695 35.6022C147.252 35.6022 147.775 35.5336 148.264 35.3963C148.766 35.2453 149.242 35.0118 149.69 34.696L150.545 36.7557C150.029 37.1402 149.432 37.4354 148.753 37.6413C148.087 37.8472 147.368 37.9502 146.593 37.9502Z" fill="white"></path><path d="M157.366 37.9499C156.022 37.9499 155.01 37.6134 154.331 36.9406C153.652 36.2542 153.312 35.2311 153.312 33.8719V29.6086H151.357V27.2812H153.312V24.7274L156.388 23.9653V27.2812H159.036V29.6086H156.388V33.7071C156.388 34.3662 156.524 34.8193 156.796 35.0663C157.067 35.3135 157.413 35.4372 157.834 35.4372C158.092 35.4372 158.303 35.4235 158.466 35.3959C158.642 35.3548 158.826 35.2998 159.016 35.2311V37.6409C158.758 37.7507 158.486 37.8262 158.201 37.8675C157.916 37.9223 157.638 37.9499 157.366 37.9499Z" fill="white"></path><path fill-rule="evenodd" clip-rule="evenodd" d="M18.6923 48.1726C28.6185 48.1726 36.6652 40.0363 36.6652 29.9998C36.6652 19.9633 28.6185 11.8271 18.6923 11.8271C8.76602 11.8271 0.719238 19.9633 0.719238 29.9998C0.719238 40.0363 8.76602 48.1726 18.6923 48.1726ZM23.5428 23.9423H13.4622C13.1924 23.9423 12.7647 23.9438 12.3425 24.1433C11.9489 24.3293 11.6216 24.6332 11.4042 25.0133C11.1868 25.3934 11.0895 25.8317 11.1251 26.2691C11.1638 26.7449 11.385 27.1136 11.5281 27.352L11.531 27.3569L11.5335 27.3609L17.7852 38.399C17.9239 38.644 18.1815 38.7955 18.4606 38.7964C18.7398 38.7974 18.9983 38.6478 19.1387 38.404L25.5075 27.3422L25.5102 27.3374L25.5134 27.3318C25.7177 26.964 25.8089 26.5419 25.8089 26.1547C25.8089 25.747 25.7084 25.368 25.5134 25.017C25.5022 24.9969 25.4902 24.9772 25.4772 24.9581C25.3113 24.7129 25.0747 24.3811 24.6283 24.1708C24.2558 23.9952 23.8995 23.9423 23.5428 23.9423ZM13.4622 25.5225H17.682V35.0368L12.8848 26.567C12.8816 26.5614 12.8783 26.5558 12.875 26.5502C12.7152 26.2838 12.6881 26.2068 12.6827 26.1396C12.6732 26.0225 12.6993 25.9055 12.7571 25.8044C12.8149 25.7033 12.9012 25.6235 13.0041 25.575C13.0785 25.5398 13.185 25.5225 13.4622 25.5225ZM19.2449 35.0787V25.5225H23.5428C23.7331 25.5225 23.8518 25.5483 23.9679 25.6031C23.9958 25.6162 24.0155 25.6303 24.0411 25.6567C24.0708 25.6876 24.1067 25.7327 24.1652 25.8179C24.2211 25.927 24.246 26.0328 24.246 26.1547C24.246 26.3048 24.2084 26.4518 24.1531 26.5536L19.2449 35.0787Z" fill="white"></path></svg> 