<?xml version="1.0" encoding="UTF-8"?> <svg xmlns="http://www.w3.org/2000/svg" width="160" height="60" viewBox="0 0 160 60" fill="none"><g clip-path="url(#clip0_763_8054)"><mask id="mask0_763_8054" style="mask-type:luminance" maskUnits="userSpaceOnUse" x="0" y="15" width="160" height="30"><path d="M159.296 15H0V44.7674H159.296V15Z" fill="white"></path></mask><g mask="url(#mask0_763_8054)"><path opacity="0.5" d="M14.4817 28.5879L28.7843 22.1069L14.4817 44.6783V28.5879Z" fill="white"></path><path opacity="0.75" d="M14.4814 28.5879L0.178711 22.1069L14.4814 44.6783V28.5879Z" fill="white"></path><path d="M14.4814 28.5878L0.178711 22.1069L14.4814 15.626L28.7841 22.1069L14.4814 28.5878Z" fill="white"></path><path d="M44.3497 37.8134V25.545H39.5115V22.6938H52.6869V25.545H47.8487V37.8134H44.3497Z" fill="white"></path><path d="M58.6802 37.986C57.4418 37.986 56.3403 37.7268 55.3755 37.2085C54.4252 36.69 53.6692 35.9845 53.1076 35.0918C52.5605 34.1846 52.2869 33.155 52.2869 32.003C52.2869 30.8366 52.5605 29.807 53.1076 28.9143C53.6692 28.0071 54.4252 27.3016 55.3755 26.7976C56.3403 26.2792 57.4418 26.02 58.6802 26.02C59.9042 26.02 60.9986 26.2792 61.9633 26.7976C62.9281 27.3016 63.6841 27.9999 64.2312 28.8927C64.7784 29.7855 65.052 30.8222 65.052 32.003C65.052 33.155 64.7784 34.1846 64.2312 35.0918C63.6841 35.9845 62.9281 36.69 61.9633 37.2085C60.9986 37.7268 59.9042 37.986 58.6802 37.986ZM58.6802 35.2212C59.2418 35.2212 59.7458 35.0918 60.1922 34.8325C60.6385 34.5733 60.9914 34.2062 61.2506 33.731C61.5097 33.2413 61.6393 32.6653 61.6393 32.003C61.6393 31.3262 61.5097 30.7503 61.2506 30.275C60.9914 29.7999 60.6385 29.4327 60.1922 29.1735C59.7458 28.9143 59.2418 28.7848 58.6802 28.7848C58.1187 28.7848 57.6146 28.9143 57.1682 29.1735C56.7218 29.4327 56.3619 29.7999 56.0883 30.275C55.8291 30.7503 55.6996 31.3262 55.6996 32.003C55.6996 32.6653 55.8291 33.2413 56.0883 33.731C56.3619 34.2062 56.7218 34.5733 57.1682 34.8325C57.6146 35.0918 58.1187 35.2212 58.6802 35.2212Z" fill="white"></path><path d="M74.3671 26.02C75.2887 26.02 76.1094 26.2072 76.8294 26.5816C77.5638 26.9416 78.1398 27.5032 78.5574 28.2663C78.9749 29.0151 79.1838 29.9798 79.1838 31.1606V37.8132H75.8142V31.679C75.8142 30.7431 75.6055 30.0519 75.1879 29.6055C74.7846 29.1591 74.2088 28.936 73.46 28.936C72.9271 28.936 72.4448 29.0511 72.0128 29.2815C71.5952 29.4975 71.264 29.8359 71.0192 30.2967C70.7889 30.7575 70.6736 31.3479 70.6736 32.0678V37.8132H67.3042V26.1928H70.5224V29.4111L69.9177 28.4391C70.3353 27.6616 70.9329 27.064 71.7104 26.6464C72.488 26.2288 73.3735 26.02 74.3671 26.02Z" fill="white"></path><path d="M85.0244 35.4374L85.1107 31.3336L90.5321 26.1929H94.5496L89.3441 31.4848L87.5947 32.9102L85.0244 35.4374ZM82.238 37.8133V21.7866H85.6075V37.8133H82.238ZM90.8994 37.8133L86.9682 32.9318L89.085 30.3184L94.9816 37.8133H90.8994Z" fill="white"></path><path d="M101.779 37.986C100.454 37.986 99.2879 37.7268 98.2799 37.2085C97.2862 36.69 96.5159 35.9845 95.9688 35.0918C95.4216 34.1846 95.1479 33.155 95.1479 32.003C95.1479 30.8366 95.4144 29.807 95.9471 28.9143C96.4943 28.0071 97.2359 27.3016 98.1718 26.7976C99.1078 26.2792 100.166 26.02 101.347 26.02C102.485 26.02 103.507 26.2648 104.414 26.7544C105.336 27.2296 106.063 27.9208 106.596 28.8279C107.128 29.7207 107.395 30.7935 107.395 32.0462C107.395 32.1758 107.388 32.327 107.373 32.4998C107.359 32.6581 107.344 32.8093 107.33 32.9533H97.891V30.9878H105.559L104.263 31.571C104.263 30.9662 104.14 30.4407 103.896 29.9943C103.651 29.5479 103.313 29.2023 102.881 28.9576C102.449 28.6983 101.944 28.5687 101.369 28.5687C100.793 28.5687 100.281 28.6983 99.835 28.9576C99.403 29.2023 99.0646 29.5551 98.8199 30.0159C98.5751 30.4623 98.4526 30.995 98.4526 31.6142V32.1326C98.4526 32.7662 98.5894 33.3278 98.8631 33.8173C99.1511 34.2925 99.547 34.6598 100.051 34.9189C100.569 35.1637 101.174 35.2861 101.865 35.2861C102.485 35.2861 103.025 35.1925 103.485 35.0053C103.96 34.8181 104.392 34.5373 104.781 34.1629L106.574 36.1068C106.041 36.7116 105.372 37.1797 104.565 37.5109C103.759 37.8276 102.83 37.986 101.779 37.986Z" fill="white"></path><path d="M115.405 37.986C114.08 37.986 112.914 37.7268 111.906 37.2085C110.912 36.69 110.142 35.9845 109.595 35.0918C109.047 34.1846 108.774 33.155 108.774 32.003C108.774 30.8366 109.04 29.807 109.573 28.9143C110.12 28.0071 110.862 27.3016 111.798 26.7976C112.734 26.2792 113.792 26.02 114.973 26.02C116.11 26.02 117.133 26.2648 118.04 26.7544C118.962 27.2296 119.689 27.9208 120.221 28.8279C120.754 29.7207 121.021 30.7935 121.021 32.0462C121.021 32.1758 121.013 32.327 120.999 32.4998C120.985 32.6581 120.97 32.8093 120.956 32.9533H111.517V30.9878H119.185L117.889 31.571C117.889 30.9662 117.766 30.4407 117.522 29.9943C117.277 29.5479 116.938 29.2023 116.506 28.9576C116.074 28.6983 115.57 28.5687 114.994 28.5687C114.418 28.5687 113.907 28.6983 113.461 28.9576C113.029 29.2023 112.691 29.5551 112.446 30.0159C112.201 30.4623 112.079 30.995 112.079 31.6142V32.1326C112.079 32.7662 112.215 33.3278 112.489 33.8173C112.777 34.2925 113.173 34.6598 113.677 34.9189C114.195 35.1637 114.8 35.2861 115.491 35.2861C116.11 35.2861 116.65 35.1925 117.111 35.0053C117.586 34.8181 118.018 34.5373 118.407 34.1629L120.2 36.1068C119.667 36.7116 118.998 37.1797 118.191 37.5109C117.385 37.8276 116.456 37.986 115.405 37.986Z" fill="white"></path><path d="M130.132 37.986C129.154 37.986 128.297 37.77 127.562 37.3381C126.828 36.9061 126.253 36.2508 125.835 35.3724C125.431 34.4798 125.229 33.3566 125.229 32.003C125.229 30.6351 125.424 29.5119 125.812 28.6335C126.202 27.7552 126.764 27.1 127.498 26.668C128.232 26.236 129.11 26.02 130.132 26.02C131.227 26.02 132.206 26.272 133.071 26.776C133.949 27.2656 134.64 27.9568 135.144 28.8495C135.662 29.7423 135.921 30.7935 135.921 32.003C135.921 33.227 135.662 34.2853 135.144 35.1781C134.64 36.0709 133.949 36.7621 133.071 37.2516C132.206 37.7412 131.227 37.986 130.132 37.986ZM123.264 42.0035V26.1928H126.482V28.5687L126.418 32.0246L126.633 35.4589V42.0035H123.264ZM129.549 35.2212C130.111 35.2212 130.607 35.0918 131.04 34.8325C131.487 34.5733 131.839 34.2062 132.098 33.731C132.372 33.2413 132.509 32.6653 132.509 32.003C132.509 31.3262 132.372 30.7503 132.098 30.275C131.839 29.7999 131.487 29.4327 131.04 29.1735C130.607 28.9143 130.111 28.7848 129.549 28.7848C128.987 28.7848 128.484 28.9143 128.037 29.1735C127.591 29.4327 127.239 29.7999 126.979 30.275C126.72 30.7503 126.59 31.3262 126.59 32.003C126.59 32.6653 126.72 33.2413 126.979 33.731C127.239 34.2062 127.591 34.5733 128.037 34.8325C128.484 35.0918 128.987 35.2212 129.549 35.2212Z" fill="white"></path><path d="M143.944 37.986C142.62 37.986 141.452 37.7268 140.445 37.2085C139.451 36.69 138.68 35.9845 138.133 35.0918C137.586 34.1846 137.312 33.155 137.312 32.003C137.312 30.8366 137.579 29.807 138.112 28.9143C138.659 28.0071 139.401 27.3016 140.336 26.7976C141.273 26.2792 142.331 26.02 143.511 26.02C144.65 26.02 145.672 26.2648 146.579 26.7544C147.5 27.2296 148.228 27.9208 148.76 28.8279C149.294 29.7207 149.559 30.7935 149.559 32.0462C149.559 32.1758 149.553 32.327 149.538 32.4998C149.523 32.6581 149.509 32.8093 149.495 32.9533H140.056V30.9878H147.723L146.427 31.571C146.427 30.9662 146.306 30.4407 146.06 29.9943C145.816 29.5479 145.477 29.2023 145.046 28.9576C144.614 28.6983 144.109 28.5687 143.534 28.5687C142.957 28.5687 142.446 28.6983 141.999 28.9576C141.568 29.2023 141.229 29.5551 140.985 30.0159C140.74 30.4623 140.618 30.995 140.618 31.6142V32.1326C140.618 32.7662 140.754 33.3278 141.028 33.8173C141.316 34.2925 141.712 34.6598 142.215 34.9189C142.734 35.1637 143.339 35.2861 144.03 35.2861C144.65 35.2861 145.189 35.1925 145.65 35.0053C146.126 34.8181 146.558 34.5373 146.946 34.1629L148.739 36.1068C148.206 36.7116 147.536 37.1797 146.73 37.5109C145.924 37.8276 144.995 37.986 143.944 37.986Z" fill="white"></path><path d="M151.803 37.8132V26.1928H155.021V29.4759L154.567 28.5256C154.913 27.7047 155.468 27.0856 156.231 26.668C156.993 26.236 157.922 26.02 159.016 26.02V29.1303C158.873 29.1159 158.744 29.1088 158.628 29.1088C158.513 29.0944 158.39 29.0872 158.261 29.0872C157.339 29.0872 156.59 29.3535 156.015 29.8863C155.453 30.4046 155.173 31.2183 155.173 32.327V37.8132H151.803Z" fill="white"></path></g></g><defs><clipPath id="clip0_763_8054"><rect width="160" height="29.7674" fill="white" transform="translate(0 15)"></rect></clipPath></defs></svg> 