<?xml version="1.0" encoding="UTF-8"?> <svg xmlns="http://www.w3.org/2000/svg" width="160" height="60" viewBox="0 0 160 60" fill="none"><path fill-rule="evenodd" clip-rule="evenodd" d="M17.048 46.3665C26.0605 46.3665 33.3667 39.0603 33.3667 30.0478C33.3667 21.0352 26.0605 13.729 17.048 13.729C8.03539 13.729 0.729248 21.0352 0.729248 30.0478C0.729248 39.0603 8.03539 46.3665 17.048 46.3665ZM25.5334 24.5685C25.2387 24.0583 24.69 23.7415 24.1008 23.7415H11.8881L13.4741 26.4885H22.2077L17.841 34.052L19.4268 36.799L25.5334 26.2224C25.828 25.7123 25.828 25.0786 25.5334 24.5685ZM11.8883 26.4885L17.0481 35.4255L17.0498 35.4225L18.6355 38.1698L18.4804 38.4385C18.1858 38.9486 17.6368 39.2655 17.0478 39.2655C16.4588 39.2655 15.91 38.9486 15.6155 38.4385L8.56265 26.2224C8.26824 25.7123 8.26807 25.0786 8.56265 24.5685C8.85724 24.0583 9.40614 23.7415 9.99514 23.7415H10.3074L11.893 26.4885H11.8883Z" fill="white"></path><path d="M49.7772 24.7936H45.1165V21.8921H57.9105V24.7936H53.2497V37.8617H49.7772V24.7936Z" fill="white"></path><path d="M62.9505 38.2043C61.6255 38.2043 60.4603 37.9683 59.455 37.4961C58.465 37.0087 57.6959 36.331 57.1476 35.4628C56.6145 34.5794 56.3479 33.5513 56.3479 32.3785C56.3479 31.2363 56.6145 30.2234 57.1476 29.34C57.6959 28.4565 58.465 27.7713 59.455 27.2838C60.4603 26.7964 61.6255 26.5527 62.9505 26.5527C64.2603 26.5527 65.4103 26.7964 66.4003 27.2838C67.4055 27.7713 68.1748 28.4565 68.7078 29.34C69.256 30.2234 69.5302 31.2363 69.5302 32.3785C69.5302 33.5513 69.256 34.5794 68.7078 35.4628C68.1748 36.331 67.4132 37.0087 66.4232 37.4961C65.4332 37.9683 64.2756 38.2043 62.9505 38.2043ZM62.9505 35.5084C63.8796 35.5084 64.6183 35.2267 65.1666 34.6631C65.7149 34.0844 65.989 33.3228 65.989 32.3785C65.989 31.4037 65.7149 30.6423 65.1666 30.0938C64.6335 29.5304 63.8949 29.2485 62.9505 29.2485C62.0062 29.2485 61.2599 29.5304 60.7116 30.0938C60.1633 30.6423 59.8892 31.4037 59.8892 32.3785C59.8892 33.3228 60.1633 34.0844 60.7116 34.6631C61.2752 35.2267 62.0215 35.5084 62.9505 35.5084Z" fill="white"></path><path d="M71.4629 26.8954H74.7985V28.2434C75.301 27.6798 75.895 27.261 76.5805 26.9868C77.281 26.6974 78.0122 26.5527 78.7737 26.5527C80.2663 26.5527 81.3782 26.9563 82.1093 27.7635C82.8556 28.5555 83.2287 29.6294 83.2287 30.9848V37.8617H79.7789V31.3733C79.7789 29.9568 79.124 29.2485 77.8142 29.2485C77.2355 29.2485 76.6947 29.3933 76.192 29.6827C75.6895 29.9568 75.263 30.3681 74.9127 30.9164V37.8617H71.4629V26.8954Z" fill="white"></path><path d="M90.0195 38.2043C89.1969 38.2043 88.3136 38.113 87.3692 37.9301C86.4402 37.7627 85.7091 37.519 85.1761 37.1991V34.5033C85.7852 34.8688 86.5163 35.1658 87.3692 35.3943C88.2222 35.6227 89.0142 35.737 89.7453 35.737C90.3698 35.737 90.8266 35.6835 91.1161 35.577C91.4055 35.4704 91.5502 35.2724 91.5502 34.983C91.5502 34.7545 91.4663 34.5718 91.2988 34.4347C91.1313 34.2824 90.8723 34.153 90.5221 34.0463C90.1869 33.9244 89.6235 33.7493 88.8315 33.5208C87.9023 33.2467 87.1712 32.9725 86.6382 32.6984C86.1203 32.409 85.7243 32.0511 85.4502 31.6245C85.1912 31.1981 85.0618 30.6498 85.0618 29.9797C85.0618 28.8374 85.5111 27.9844 86.4098 27.4208C87.3236 26.8421 88.5573 26.5527 90.1108 26.5527C90.8723 26.5527 91.6568 26.6365 92.4639 26.804C93.2865 26.9563 93.9185 27.162 94.3602 27.4208V30.0483C93.9185 29.7588 93.3398 29.5227 92.6239 29.34C91.9233 29.1573 91.2379 29.0658 90.5678 29.0658C89.9433 29.0658 89.4559 29.1267 89.1056 29.2485C88.7705 29.3704 88.6029 29.5988 88.6029 29.934C88.6029 30.2234 88.7629 30.4443 89.0828 30.5965C89.4178 30.7488 90.0346 30.9393 90.9333 31.1677L91.3902 31.2818C92.3498 31.5408 93.096 31.8303 93.6292 32.1501C94.1622 32.4547 94.5353 32.8278 94.7486 33.2695C94.977 33.696 95.0913 34.2367 95.0913 34.8915C95.0913 35.8968 94.6572 36.7041 93.789 37.3133C92.9209 37.9073 91.6643 38.2043 90.0195 38.2043Z" fill="white"></path><path d="M101.289 38.2042C100.009 38.2042 99.0344 37.8539 98.3643 37.1533C97.7094 36.4374 97.3819 35.4474 97.3819 34.1833V29.3856H95.7827V26.8953H97.3819V23.6055H100.832V26.8953H103.413V29.3856H100.832V33.7263C100.832 34.366 100.954 34.8306 101.197 35.12C101.441 35.3942 101.875 35.5312 102.499 35.5312C103.002 35.5312 103.482 35.4093 103.939 35.1657V37.7473C103.238 38.0519 102.355 38.2042 101.289 38.2042Z" fill="white"></path><path d="M109.286 38.2043C107.946 38.2043 106.849 37.8693 105.997 37.1991C105.159 36.5137 104.74 35.5845 104.74 34.4118C104.74 33.1934 105.144 32.2491 105.951 31.579C106.758 30.8935 107.9 30.5508 109.378 30.5508C110.033 30.5508 110.657 30.6194 111.251 30.7564C111.845 30.8935 112.371 31.0838 112.828 31.3275V31.0534C112.828 30.3681 112.584 29.8654 112.096 29.5455C111.609 29.2257 110.863 29.0658 109.858 29.0658C108.517 29.0658 107.284 29.3171 106.156 29.8197V27.3067C106.644 27.0934 107.276 26.9183 108.053 26.7812C108.829 26.6289 109.606 26.5527 110.383 26.5527C112.363 26.5527 113.84 26.964 114.815 27.7864C115.79 28.5937 116.277 29.7284 116.277 31.1905V37.8617H113.033V36.8564C112.104 37.755 110.855 38.2043 109.286 38.2043ZM110.223 35.9197C110.787 35.9197 111.297 35.8131 111.754 35.5998C112.211 35.3865 112.569 35.0895 112.828 34.7088V33.6123C112.051 33.0944 111.198 32.8354 110.269 32.8354C109.629 32.8354 109.134 32.9725 108.784 33.2467C108.449 33.5055 108.281 33.894 108.281 34.4118C108.281 34.8993 108.449 35.2724 108.784 35.5313C109.119 35.7903 109.599 35.9197 110.223 35.9197Z" fill="white"></path><path d="M118.561 26.8957H121.897V28.4721C122.338 27.9389 122.955 27.5354 123.747 27.2612C124.539 26.9718 125.438 26.8271 126.443 26.8271V29.4545C125.392 29.4545 124.463 29.6144 123.656 29.9342C122.864 30.2541 122.315 30.7415 122.011 31.3964V37.8619H118.561V26.8957Z" fill="white"></path><path d="M132.501 38.2042C131.222 38.2042 130.247 37.8539 129.577 37.1533C128.922 36.4374 128.595 35.4474 128.595 34.1833V29.3856H126.995V26.8953H128.595V23.6055H132.044V26.8953H134.626V29.3856H132.044V33.7263C132.044 34.366 132.166 34.8306 132.41 35.12C132.654 35.3942 133.088 35.5312 133.712 35.5312C134.215 35.5312 134.695 35.4093 135.152 35.1657V37.7473C134.451 38.0519 133.568 38.2042 132.501 38.2042Z" fill="white"></path><path d="M143.05 38.2043C140.948 38.2043 139.295 37.7017 138.092 36.6964C136.889 35.676 136.287 34.252 136.287 32.4243C136.287 30.6117 136.82 29.1801 137.887 28.1291C138.968 27.0782 140.506 26.5527 142.501 26.5527C143.811 26.5527 144.923 26.7964 145.837 27.2838C146.751 27.7713 147.444 28.449 147.916 29.3171C148.388 30.1701 148.624 31.1373 148.624 32.2185V33.6123H139.577C139.821 35.0134 141.131 35.7141 143.507 35.7141C144.207 35.7141 144.931 35.6531 145.677 35.5313C146.423 35.4094 147.071 35.242 147.618 35.0287V37.4504C147.086 37.6788 146.4 37.8617 145.563 37.9987C144.726 38.1358 143.887 38.2043 143.05 38.2043ZM145.357 31.3733C145.311 30.6423 145.037 30.0787 144.534 29.6827C144.033 29.2714 143.34 29.0658 142.456 29.0658C141.588 29.0658 140.902 29.2714 140.4 29.6827C139.897 30.0938 139.623 30.6574 139.577 31.3733H145.357Z" fill="white"></path><path d="M150.533 26.8957H153.869V28.4721C154.31 27.9389 154.927 27.5354 155.719 27.2612C156.51 26.9718 157.409 26.8271 158.414 26.8271V29.4545C157.363 29.4545 156.434 29.6144 155.627 29.9342C154.836 30.2541 154.287 30.7415 153.983 31.3964V37.8619H150.533V26.8957Z" fill="white"></path></svg> 