<?xml version="1.0" encoding="UTF-8"?> <svg xmlns="http://www.w3.org/2000/svg" width="146" height="24" viewBox="0 0 146 24" fill="none"> <path d="M1.40909 18V6.36364H5.47727C6.28788 6.36364 6.95644 6.50379 7.48295 6.78409C8.00947 7.06061 8.40152 7.43371 8.65909 7.90341C8.91667 8.36932 9.04545 8.88636 9.04545 9.45455C9.04545 9.95455 8.95644 10.3674 8.77841 10.6932C8.60417 11.0189 8.37311 11.2765 8.08523 11.4659C7.80114 11.6553 7.49242 11.7955 7.15909 11.8864V12C7.51515 12.0227 7.87311 12.1477 8.23295 12.375C8.5928 12.6023 8.89394 12.928 9.13636 13.3523C9.37879 13.7765 9.5 14.2955 9.5 14.9091C9.5 15.4924 9.36742 16.017 9.10227 16.483C8.83712 16.9489 8.41856 17.3182 7.84659 17.5909C7.27462 17.8636 6.5303 18 5.61364 18H1.40909ZM2.81818 16.75H5.61364C6.53409 16.75 7.1875 16.572 7.57386 16.2159C7.96402 15.8561 8.15909 15.4205 8.15909 14.9091C8.15909 14.5152 8.05871 14.1515 7.85795 13.8182C7.6572 13.4811 7.37121 13.2121 7 13.0114C6.62879 12.8068 6.18939 12.7045 5.68182 12.7045H2.81818V16.75ZM2.81818 11.4773H5.43182C5.85606 11.4773 6.23864 11.3939 6.57955 11.2273C6.92424 11.0606 7.19697 10.8258 7.39773 10.5227C7.60227 10.2197 7.70455 9.86364 7.70455 9.45455C7.70455 8.94318 7.52652 8.50947 7.17045 8.15341C6.81439 7.79356 6.25 7.61364 5.47727 7.61364H2.81818V11.4773ZM14.2017 18.2045C13.6487 18.2045 13.1468 18.1004 12.696 17.892C12.2453 17.6799 11.8873 17.375 11.6222 16.9773C11.357 16.5758 11.2244 16.0909 11.2244 15.5227C11.2244 15.0227 11.3229 14.6174 11.5199 14.3068C11.7169 13.9924 11.9801 13.7462 12.3097 13.5682C12.6392 13.3902 13.0028 13.2576 13.4006 13.1705C13.8021 13.0795 14.2055 13.0076 14.6108 12.9545C15.1411 12.8864 15.571 12.8352 15.9006 12.8011C16.2339 12.7633 16.4763 12.7008 16.6278 12.6136C16.7831 12.5265 16.8608 12.375 16.8608 12.1591V12.1136C16.8608 11.553 16.7074 11.1174 16.4006 10.8068C16.0975 10.4962 15.6373 10.3409 15.0199 10.3409C14.3797 10.3409 13.8778 10.4811 13.5142 10.7614C13.1506 11.0417 12.8949 11.3409 12.7472 11.6591L11.4744 11.2045C11.7017 10.6742 12.0047 10.2614 12.3835 9.96591C12.7661 9.66667 13.1828 9.45833 13.6335 9.34091C14.0881 9.2197 14.535 9.15909 14.9744 9.15909C15.2547 9.15909 15.5767 9.19318 15.9403 9.26136C16.3078 9.32576 16.6619 9.46023 17.0028 9.66477C17.3475 9.86932 17.6335 10.178 17.8608 10.5909C18.0881 11.0038 18.2017 11.5568 18.2017 12.25V18H16.8608V16.8182H16.7926C16.7017 17.0076 16.5502 17.2102 16.3381 17.4261C16.1259 17.642 15.8438 17.8258 15.4915 17.9773C15.1392 18.1288 14.7093 18.2045 14.2017 18.2045ZM14.4062 17C14.9366 17 15.3835 16.8958 15.7472 16.6875C16.1146 16.4792 16.3911 16.2102 16.5767 15.8807C16.7661 15.5511 16.8608 15.2045 16.8608 14.8409V13.6136C16.804 13.6818 16.679 13.7443 16.4858 13.8011C16.2964 13.8542 16.0767 13.9015 15.8267 13.9432C15.5805 13.9811 15.34 14.0152 15.1051 14.0455C14.8741 14.072 14.6866 14.0947 14.5426 14.1136C14.1941 14.1591 13.8684 14.233 13.5653 14.3352C13.2661 14.4337 13.0237 14.5833 12.8381 14.7841C12.6563 14.9811 12.5653 15.25 12.5653 15.5909C12.5653 16.0568 12.7377 16.4091 13.0824 16.6477C13.4309 16.8826 13.8722 17 14.4062 17ZM26.831 11.2273L25.6264 11.5682C25.5507 11.3674 25.4389 11.1723 25.2912 10.983C25.1473 10.7898 24.9503 10.6307 24.7003 10.5057C24.4503 10.3807 24.1302 10.3182 23.7401 10.3182C23.206 10.3182 22.7609 10.4413 22.4048 10.6875C22.0526 10.9299 21.8764 11.2386 21.8764 11.6136C21.8764 11.947 21.9976 12.2102 22.2401 12.4034C22.4825 12.5966 22.8613 12.7576 23.3764 12.8864L24.6719 13.2045C25.4522 13.3939 26.0336 13.6837 26.4162 14.0739C26.7988 14.4602 26.9901 14.9583 26.9901 15.5682C26.9901 16.0682 26.8461 16.5152 26.5582 16.9091C26.2741 17.303 25.8764 17.6136 25.3651 17.8409C24.8537 18.0682 24.259 18.1818 23.581 18.1818C22.6908 18.1818 21.9541 17.9886 21.3707 17.6023C20.7874 17.2159 20.4181 16.6515 20.2628 15.9091L21.5355 15.5909C21.6567 16.0606 21.8859 16.4129 22.223 16.6477C22.5639 16.8826 23.009 17 23.5582 17C24.1832 17 24.6795 16.8674 25.0469 16.6023C25.4181 16.3333 25.6037 16.0114 25.6037 15.6364C25.6037 15.3333 25.4976 15.0795 25.2855 14.875C25.0734 14.6667 24.7476 14.5114 24.3082 14.4091L22.8537 14.0682C22.0545 13.8788 21.4673 13.5852 21.0923 13.1875C20.7211 12.786 20.5355 12.2841 20.5355 11.6818C20.5355 11.1894 20.6738 10.7538 20.9503 10.375C21.2306 9.99621 21.6113 9.69886 22.0923 9.48295C22.5772 9.26705 23.1264 9.15909 23.7401 9.15909C24.6037 9.15909 25.2817 9.34848 25.7741 9.72727C26.2704 10.1061 26.6226 10.6061 26.831 11.2273ZM32.6676 18.1818C31.8267 18.1818 31.1013 17.9962 30.4915 17.625C29.8854 17.25 29.4176 16.7273 29.0881 16.0568C28.7623 15.3826 28.5994 14.5985 28.5994 13.7045C28.5994 12.8106 28.7623 12.0227 29.0881 11.3409C29.4176 10.6553 29.8759 10.1212 30.4631 9.73864C31.054 9.35227 31.7434 9.15909 32.5312 9.15909C32.9858 9.15909 33.4347 9.23485 33.8778 9.38636C34.321 9.53788 34.7244 9.78409 35.0881 10.125C35.4517 10.4621 35.7415 10.9091 35.9574 11.4659C36.1733 12.0227 36.2812 12.7083 36.2812 13.5227V14.0909H29.554V12.9318H34.9176C34.9176 12.4394 34.8191 12 34.6222 11.6136C34.429 11.2273 34.1525 10.9223 33.7926 10.6989C33.4366 10.4754 33.0161 10.3636 32.5312 10.3636C31.9972 10.3636 31.535 10.4962 31.1449 10.7614C30.7585 11.0227 30.4612 11.3636 30.2528 11.7841C30.0445 12.2045 29.9403 12.6553 29.9403 13.1364V13.9091C29.9403 14.5682 30.054 15.1269 30.2812 15.5852C30.5123 16.0398 30.8324 16.3864 31.2415 16.625C31.6506 16.8598 32.1259 16.9773 32.6676 16.9773C33.0199 16.9773 33.3381 16.928 33.6222 16.8295C33.91 16.7273 34.1581 16.5758 34.3665 16.375C34.5748 16.1705 34.7358 15.9167 34.8494 15.6136L36.1449 15.9773C36.0085 16.4167 35.7794 16.803 35.4574 17.1364C35.1354 17.4659 34.7377 17.7235 34.2642 17.9091C33.7907 18.0909 33.2585 18.1818 32.6676 18.1818ZM41.6165 18.1818C40.8892 18.1818 40.2472 17.9981 39.6903 17.6307C39.1335 17.2595 38.6979 16.7367 38.3835 16.0625C38.0691 15.3845 37.9119 14.5833 37.9119 13.6591C37.9119 12.7424 38.0691 11.947 38.3835 11.2727C38.6979 10.5985 39.1354 10.0777 39.696 9.71023C40.2566 9.3428 40.9044 9.15909 41.6392 9.15909C42.2074 9.15909 42.6563 9.25379 42.9858 9.44318C43.3191 9.62879 43.5729 9.84091 43.7472 10.0795C43.9252 10.3144 44.0634 10.5076 44.1619 10.6591H44.2756V6.36364H45.6165V18H44.321V16.6591H44.1619C44.0634 16.8182 43.9233 17.0189 43.7415 17.2614C43.5597 17.5 43.3002 17.714 42.9631 17.9034C42.6259 18.089 42.1771 18.1818 41.6165 18.1818ZM41.7983 16.9773C42.3362 16.9773 42.7907 16.8371 43.1619 16.5568C43.5331 16.2727 43.8153 15.8807 44.0085 15.3807C44.2017 14.8769 44.2983 14.2955 44.2983 13.6364C44.2983 12.9848 44.2036 12.4148 44.0142 11.9261C43.8248 11.4337 43.5445 11.0511 43.1733 10.7784C42.8021 10.5019 42.3438 10.3636 41.7983 10.3636C41.2301 10.3636 40.7566 10.5095 40.3778 10.8011C40.0028 11.089 39.7206 11.4811 39.5312 11.9773C39.3456 12.4697 39.2528 13.0227 39.2528 13.6364C39.2528 14.2576 39.3475 14.822 39.5369 15.3295C39.7301 15.8333 40.0142 16.2348 40.3892 16.5341C40.768 16.8295 41.2377 16.9773 41.7983 16.9773ZM56.304 18.1818C55.5161 18.1818 54.8248 17.9943 54.2301 17.6193C53.6392 17.2443 53.1771 16.7197 52.8438 16.0455C52.5142 15.3712 52.3494 14.5833 52.3494 13.6818C52.3494 12.7727 52.5142 11.9792 52.8438 11.3011C53.1771 10.6231 53.6392 10.0966 54.2301 9.72159C54.8248 9.34659 55.5161 9.15909 56.304 9.15909C57.0919 9.15909 57.7813 9.34659 58.3722 9.72159C58.9669 10.0966 59.429 10.6231 59.7585 11.3011C60.0919 11.9792 60.2585 12.7727 60.2585 13.6818C60.2585 14.5833 60.0919 15.3712 59.7585 16.0455C59.429 16.7197 58.9669 17.2443 58.3722 17.6193C57.7813 17.9943 57.0919 18.1818 56.304 18.1818ZM56.304 16.9773C56.9025 16.9773 57.3949 16.8239 57.7812 16.517C58.1676 16.2102 58.4536 15.8068 58.6392 15.3068C58.8248 14.8068 58.9176 14.2652 58.9176 13.6818C58.9176 13.0985 58.8248 12.5549 58.6392 12.0511C58.4536 11.5473 58.1676 11.1402 57.7812 10.8295C57.3949 10.5189 56.9025 10.3636 56.304 10.3636C55.7055 10.3636 55.2131 10.5189 54.8267 10.8295C54.4403 11.1402 54.1544 11.5473 53.9688 12.0511C53.7831 12.5549 53.6903 13.0985 53.6903 13.6818C53.6903 14.2652 53.7831 14.8068 53.9688 15.3068C54.1544 15.8068 54.4403 16.2102 54.8267 16.517C55.2131 16.8239 55.7055 16.9773 56.304 16.9773ZM63.6463 12.75V18H62.3054V9.27273H63.6009V10.6364H63.7145C63.919 10.1932 64.2296 9.83712 64.6463 9.56818C65.063 9.29545 65.6009 9.15909 66.2599 9.15909C66.8509 9.15909 67.3679 9.2803 67.8111 9.52273C68.2543 9.76136 68.599 10.125 68.8452 10.6136C69.0914 11.0985 69.2145 11.7121 69.2145 12.4545V18H67.8736V12.5455C67.8736 11.8598 67.6955 11.3258 67.3395 10.9432C66.9834 10.5568 66.4948 10.3636 65.8736 10.3636C65.4455 10.3636 65.063 10.4564 64.7259 10.642C64.3925 10.8277 64.1293 11.0985 63.9361 11.4545C63.7429 11.8106 63.6463 12.2424 63.6463 12.75Z" fill="#9B9B9C"></path> <path d="M102.243 12C102.243 18.475 97.0988 23.7143 90.7645 23.7143C84.4303 23.7143 79.2857 18.475 79.2857 12C79.2857 5.52501 84.4303 0.285714 90.7645 0.285714C97.0988 0.285714 102.243 5.52501 102.243 12Z" stroke="#9B9B9C" stroke-width="0.571429"></path> <path fill-rule="evenodd" clip-rule="evenodd" d="M87.4891 7.93286H94.0875C94.3209 7.93286 94.5542 7.96783 94.798 8.08376C95.0902 8.22266 95.2451 8.4417 95.3537 8.60366C95.3622 8.61626 95.3701 8.62925 95.3774 8.64253C95.505 8.8743 95.5708 9.12455 95.5708 9.39373C95.5708 9.6495 95.5112 9.92816 95.3774 10.171C95.3761 10.1733 95.3748 10.1757 95.3735 10.178L91.2047 17.4823C91.1128 17.6434 90.9436 17.7422 90.7609 17.7416C90.5782 17.7409 90.4096 17.6409 90.3188 17.4791L86.2266 10.1903C86.2255 10.1884 86.2243 10.1864 86.2231 10.1844C86.1294 10.027 85.9846 9.78356 85.9593 9.46938C85.936 9.18052 85.9997 8.89106 86.142 8.64009C86.2843 8.38908 86.4985 8.18842 86.7562 8.06559C87.0325 7.93389 87.3125 7.93286 87.4891 7.93286ZM90.2512 8.97635H87.4891C87.3076 8.97635 87.238 8.98775 87.1893 9.01098C87.1219 9.04303 87.0654 9.09575 87.0275 9.16248C86.9897 9.2292 86.9726 9.30652 86.9788 9.38388C86.9824 9.42828 87.0002 9.47902 87.1047 9.65495C87.1069 9.65863 87.1091 9.66236 87.1112 9.66609L90.2512 15.2589V8.97635ZM91.2742 8.97635V15.2865L94.487 9.65722C94.5232 9.59002 94.5478 9.4929 94.5478 9.39373C94.5478 9.31329 94.5315 9.24343 94.4949 9.17139C94.4565 9.11516 94.4332 9.08538 94.4136 9.06498C94.3969 9.04753 94.384 9.03819 94.3657 9.02953C94.2898 8.9934 94.2121 8.97635 94.0875 8.97635H91.2742Z" fill="#9B9B9C"></path> <path d="M111.302 7.61364V6.36364H120.029V7.61364H116.37V18H114.961V7.61364H111.302ZM131.538 12.1818C131.538 13.4091 131.316 14.4697 130.873 15.3636C130.43 16.2576 129.822 16.947 129.049 17.4318C128.276 17.9167 127.394 18.1591 126.401 18.1591C125.409 18.1591 124.526 17.9167 123.753 17.4318C122.981 16.947 122.373 16.2576 121.93 15.3636C121.486 14.4697 121.265 13.4091 121.265 12.1818C121.265 10.9545 121.486 9.89394 121.93 9C122.373 8.10606 122.981 7.41667 123.753 6.93182C124.526 6.44697 125.409 6.20455 126.401 6.20455C127.394 6.20455 128.276 6.44697 129.049 6.93182C129.822 7.41667 130.43 8.10606 130.873 9C131.316 9.89394 131.538 10.9545 131.538 12.1818ZM130.174 12.1818C130.174 11.1742 130.005 10.3239 129.668 9.63068C129.335 8.9375 128.882 8.41288 128.31 8.05682C127.742 7.70076 127.106 7.52273 126.401 7.52273C125.697 7.52273 125.058 7.70076 124.486 8.05682C123.918 8.41288 123.466 8.9375 123.128 9.63068C122.795 10.3239 122.628 11.1742 122.628 12.1818C122.628 13.1894 122.795 14.0398 123.128 14.733C123.466 15.4261 123.918 15.9508 124.486 16.3068C125.058 16.6629 125.697 16.8409 126.401 16.8409C127.106 16.8409 127.742 16.6629 128.31 16.3068C128.882 15.9508 129.335 15.4261 129.668 14.733C130.005 14.0398 130.174 13.1894 130.174 12.1818ZM143.134 6.36364V18H141.771L135.43 8.86364H135.316V18H133.907V6.36364H135.271L141.634 15.5227H141.748V6.36364H143.134Z" fill="#9B9B9C"></path> </svg> 