<?xml version="1.0" encoding="UTF-8"?> <svg xmlns="http://www.w3.org/2000/svg" width="194" height="40" viewBox="0 0 194 40" fill="none"><path d="M24.9562 28.9813C25.2026 28.8181 25.5438 28.9228 25.6449 29.1927L29.476 39.4161C29.5992 39.7449 29.2888 40.0719 28.9349 39.9861L14.8293 36.5673C14.4499 36.4753 14.36 35.9989 14.6818 35.7858L24.9562 28.9813Z" fill="white"></path><path d="M27.4306 26.7247C27.4129 26.6775 27.4039 26.6277 27.4039 26.5776V16.2741C27.4039 15.9827 27.1109 15.7732 26.8187 15.8558L14.7318 19.273C14.4397 19.3556 14.1467 19.1461 14.1467 18.8547V12.1958C14.1467 12.0597 14.2131 11.9314 14.3263 11.8489L30.0771 0.365944C30.296 0.206351 30.6117 0.267289 30.7488 0.495606L40.2638 16.3415C40.3312 16.4538 40.343 16.5889 40.296 16.7103L32.2851 37.4043C32.1373 37.7861 31.5719 37.7832 31.4284 37.3999L27.4306 26.7247Z" fill="white"></path><path d="M10.1136 1.25901C10.1896 1.18775 10.2894 1.1442 10.3955 1.13592L24.933 0.00162366C25.3871 -0.0338079 25.6087 0.519633 25.2461 0.783536L12.8551 9.8014C12.7404 9.88487 12.5912 9.91155 12.4527 9.87337L4.29315 7.62322C3.95753 7.53066 3.85088 7.12624 4.10044 6.89244L10.1136 1.25901Z" fill="white"></path><path d="M2.02185 9.88743C2.05661 9.62137 2.33167 9.44802 2.6009 9.52249L11.2485 11.9145C11.4436 11.9684 11.5778 12.1392 11.5778 12.3335V22.0181C11.5778 22.3096 11.8711 22.5191 12.1633 22.4363L24.1663 19.0343C24.4585 18.9515 24.7518 19.161 24.7518 19.4525V25.604C24.7518 25.7468 24.6786 25.8806 24.556 25.9622L11.0931 34.9145C10.9175 35.0313 10.6807 35.0156 10.5236 34.8769L0.146663 25.7115C0.0385817 25.6161 -0.0147187 25.4766 0.00352444 25.337L2.02185 9.88743Z" fill="white"></path><path d="M65.1374 34.8071C63.0672 34.8071 61.0853 34.5168 59.1918 33.9361C57.2983 33.3302 55.7961 32.5602 54.6853 31.626L56.3894 27.8012C57.4498 28.6343 58.7626 29.3286 60.3279 29.884C61.8932 30.4395 63.4963 30.7172 65.1374 30.7172C66.5259 30.7172 67.6494 30.5657 68.5078 30.2627C69.3662 29.9598 69.9973 29.5558 70.4013 29.0509C70.8052 28.5207 71.0072 27.9274 71.0072 27.271C71.0072 26.4631 70.7169 25.8193 70.1362 25.3396C69.5555 24.8347 68.7981 24.4434 67.864 24.1657C66.9551 23.8627 65.9326 23.585 64.7965 23.3325C63.6857 23.0801 62.5622 22.7897 61.4261 22.4615C60.3153 22.1081 59.2928 21.6663 58.3587 21.1361C57.4498 20.5807 56.705 19.8485 56.1243 18.9396C55.5437 18.0308 55.2533 16.8694 55.2533 15.4556C55.2533 14.0166 55.632 12.7037 56.3894 11.5172C57.1721 10.3053 58.346 9.34596 59.9113 8.63905C61.5019 7.9069 63.509 7.54083 65.9326 7.54083C67.5232 7.54083 69.1011 7.7428 70.6664 8.14675C72.2316 8.55069 73.595 9.13136 74.7563 9.88876L73.2036 13.7136C72.0171 13.0067 70.7926 12.4892 69.5303 12.1609C68.2679 11.8075 67.0561 11.6308 65.8948 11.6308C64.5315 11.6308 63.4206 11.7949 62.5622 12.1231C61.7291 12.4513 61.1105 12.8805 60.7066 13.4107C60.3279 13.9408 60.1385 14.5467 60.1385 15.2284C60.1385 16.0363 60.4163 16.6927 60.9717 17.1976C61.5524 17.6773 62.2971 18.056 63.206 18.3337C64.1401 18.6114 65.1752 18.8892 66.3113 19.1669C67.4474 19.4193 68.5709 19.7097 69.6817 20.0379C70.8178 20.3661 71.8403 20.7953 72.7492 21.3254C73.6833 21.8556 74.4281 22.5752 74.9835 23.484C75.5642 24.3929 75.8545 25.5416 75.8545 26.9302C75.8545 28.344 75.4632 29.6568 74.6806 30.8686C73.9232 32.0552 72.7492 33.0146 71.1587 33.7467C69.5681 34.4537 67.561 34.8071 65.1374 34.8071Z" fill="white"></path><path d="M85.7439 34.4284V12.0852H76.9581V7.91953H99.4528V12.0852H90.667V34.4284H85.7439Z" fill="white"></path><path d="M115.199 34.8071C113.129 34.8071 111.223 34.4663 109.481 33.7846C107.739 33.103 106.224 32.1562 104.936 30.9444C103.649 29.7073 102.651 28.2682 101.944 26.6272C101.238 24.961 100.884 23.1432 100.884 21.174C100.884 19.2047 101.238 17.3996 101.944 15.7586C102.651 14.0923 103.649 12.6533 104.936 11.4414C106.224 10.2043 107.739 9.24497 109.481 8.56332C111.223 7.88166 113.116 7.54083 115.161 7.54083C117.231 7.54083 119.125 7.88166 120.842 8.56332C122.584 9.24497 124.098 10.2043 125.386 11.4414C126.673 12.6533 127.671 14.0923 128.378 15.7586C129.085 17.3996 129.438 19.2047 129.438 21.174C129.438 23.1432 129.085 24.961 128.378 26.6272C127.671 28.2935 126.673 29.7325 125.386 30.9444C124.098 32.1562 122.584 33.103 120.842 33.7846C119.125 34.4663 117.244 34.8071 115.199 34.8071ZM115.161 30.4899C116.499 30.4899 117.736 30.2627 118.872 29.8083C120.008 29.3538 120.993 28.7101 121.826 27.8769C122.659 27.0185 123.303 26.0339 123.757 24.9231C124.237 23.787 124.477 22.5373 124.477 21.174C124.477 19.8107 124.237 18.5736 123.757 17.4627C123.303 16.3266 122.659 15.342 121.826 14.5089C120.993 13.6505 120.008 12.9941 118.872 12.5396C117.736 12.0852 116.499 11.858 115.161 11.858C113.823 11.858 112.586 12.0852 111.45 12.5396C110.339 12.9941 109.354 13.6505 108.496 14.5089C107.663 15.342 107.006 16.3266 106.527 17.4627C106.072 18.5736 105.845 19.8107 105.845 21.174C105.845 22.512 106.072 23.7491 106.527 24.8852C107.006 26.0213 107.663 27.0185 108.496 27.8769C109.329 28.7101 110.314 29.3538 111.45 29.8083C112.586 30.2627 113.823 30.4899 115.161 30.4899Z" fill="white"></path><path d="M134.656 34.4284V7.91953H138.708L155.333 28.3314H153.326V7.91953H158.211V34.4284H154.159L137.534 14.0166H139.542V34.4284H134.656Z" fill="white"></path><path d="M166.375 34.6935C165.517 34.6935 164.784 34.4032 164.178 33.8225C163.573 33.2166 163.27 32.4592 163.27 31.5503C163.27 30.5909 163.573 29.8335 164.178 29.2781C164.784 28.6974 165.517 28.4071 166.375 28.4071C167.233 28.4071 167.965 28.6974 168.571 29.2781C169.177 29.8335 169.48 30.5909 169.48 31.5503C169.48 32.4592 169.177 33.2166 168.571 33.8225C167.965 34.4032 167.233 34.6935 166.375 34.6935Z" fill="white"></path><path d="M174.565 34.4284V13.0698C174.565 10.9491 175.183 9.2576 176.42 7.99527C177.683 6.70769 179.475 6.06391 181.798 6.06391C182.631 6.06391 183.414 6.15227 184.146 6.329C184.903 6.50572 185.534 6.78343 186.039 7.16213L184.752 10.7219C184.398 10.4442 183.994 10.2422 183.54 10.116C183.085 9.9645 182.618 9.88876 182.139 9.88876C181.154 9.88876 180.409 10.1665 179.904 10.7219C179.399 11.2521 179.147 12.06 179.147 13.1456V15.4178L179.298 17.5385V34.4284H174.565ZM171.232 18.1444V14.3574H184.714V18.1444H171.232ZM188.046 34.4284V14.2059H192.78V34.4284H188.046ZM190.432 10.8734C189.548 10.8734 188.816 10.5957 188.236 10.0402C187.68 9.48481 187.402 8.81578 187.402 8.03314C187.402 7.22525 187.68 6.55621 188.236 6.02604C188.816 5.47061 189.548 5.1929 190.432 5.1929C191.316 5.1929 192.035 5.45799 192.591 5.98817C193.171 6.4931 193.462 7.13689 193.462 7.91953C193.462 8.75266 193.184 9.45957 192.629 10.0402C192.073 10.5957 191.341 10.8734 190.432 10.8734Z" fill="white"></path></svg> 