<?xml version="1.0" encoding="UTF-8"?>
<svg xmlns="http://www.w3.org/2000/svg" width="80" height="40" viewBox="0 0 80 40" fill="none">
    <path d="M62.8284 1.17157C61.2663 -0.390524 58.7337 -0.390524 57.1716 1.17157C55.6095 2.73367 55.6095 5.26633 57.1716 6.82843L66.3432 16L4 16C1.79086 16 0 17.7909 0 20C0 22.2091 1.79086 24 4 24L66.3431 24L57.1716 33.1716C55.6095 34.7337 55.6095 37.2663 57.1716 38.8284C58.7337 40.3905 61.2663 40.3905 62.8284 38.8284L78.8246 22.8323C78.8346 22.8223 78.8445 22.8123 78.8544 22.8022C79.6089 22.034 79.9907 21.0369 79.9998 20.0369"
          fill="#5BDE81"></path>
    <path d="M79.6984 18.4734C79.5031 17.9999 79.2132 17.5563 78.8284 17.1716L62.8284 1.17157" fill="#017BFF"></path>
    <path d="M79.6984 18.4734C79.8883 18.9331 79.9951 19.4359 79.9998 19.9631L79.6984 18.4734Z" fill="#017BFF"></path>
</svg>