<?xml version="1.0" encoding="UTF-8"?> <svg xmlns="http://www.w3.org/2000/svg" width="80" height="80" viewBox="0 0 80 80" fill="none"> <path d="M18.3444 0.405243C22.0859 -0.000122339 26.7656 -6.69347e-05 32.5691 1.78255e-06H36C38.2091 1.78255e-06 40 1.79086 40 4C40 6.20914 38.2091 8.00001 36 8.00001H32.8C26.7113 8.00001 22.4661 8.0055 19.2061 8.3587C16.0209 8.70379 14.254 9.34192 12.9466 10.2918C11.9278 11.032 11.032 11.9278 10.2918 12.9466C9.34192 14.254 8.70379 16.0209 8.3587 19.2061C8.0055 22.4661 8.00001 26.7113 8.00001 32.8V47.2C8.00001 53.2887 8.0055 57.5339 8.3587 60.7939C8.70379 63.9791 9.34192 65.746 10.2918 67.0534C11.032 68.0722 11.9278 68.968 12.9466 69.7082C14.254 70.6581 16.0209 71.2962 19.2061 71.6413C22.4661 71.9945 26.7113 72 32.8 72H47.2C53.2887 72 57.5339 71.9945 60.7939 71.6413C63.9791 71.2962 65.746 70.6581 67.0534 69.7082C68.0722 68.968 68.968 68.0722 69.7082 67.0534C70.6581 65.746 71.2962 63.9791 71.6413 60.7939C71.9945 57.5339 72 53.2887 72 47.2V44C72 41.7909 73.7909 40 76 40C78.2091 40 80 41.7909 80 44V47.431C80.0001 53.2344 80.0001 57.9142 79.5948 61.6556C79.1759 65.5215 78.2862 68.8573 76.1803 71.7557C74.9467 73.4536 73.4536 74.9467 71.7557 76.1803C68.8573 78.2862 65.5215 79.1759 61.6556 79.5948C57.9142 80.0001 53.2346 80.0001 47.4312 80H32.569C26.7656 80.0001 22.0858 80.0001 18.3444 79.5948C14.4785 79.1759 11.1427 78.2862 8.2443 76.1803C6.54641 74.9467 5.05326 73.4536 3.81967 71.7557C1.71382 68.8573 0.824082 65.5215 0.405243 61.6556C-0.000122339 57.9141 -6.69347e-05 53.2345 1.78255e-06 47.4309V32.5692C-6.69347e-05 26.7656 -0.000122339 22.0859 0.405243 18.3444C0.824082 14.4785 1.71382 11.1427 3.81967 8.2443C5.05326 6.54641 6.54641 5.05326 8.2443 3.81967C11.1427 1.71382 14.4785 0.824082 18.3444 0.405243Z" fill="white"></path> <path d="M76 28C73.7909 28 72 26.2091 72 24V13.6569L46.8284 38.8284C45.2663 40.3905 42.7337 40.3905 41.1716 38.8284C39.6095 37.2663 39.6095 34.7337 41.1716 33.1716L66.3432 8L56 8C53.7909 8 52 6.20914 52 4.00001C52 1.79087 53.7909 1.78255e-06 56 1.78255e-06H76C77.0913 1.78255e-06 78.0805 0.437016 78.8022 1.14559L78.8544 1.19781C79.225 1.57518 79.5057 2.00781 79.6965 2.46887C79.8921 2.9405 80 3.45765 80 4.00001V24C80 26.2091 78.2091 28 76 28Z" fill="white"></path> </svg> 