<?xml version="1.0" encoding="UTF-8"?> <svg xmlns="http://www.w3.org/2000/svg" width="37" height="30" viewBox="0 0 37 30" fill="none"><path d="M6.32339 15.5586C6.32339 15.3937 6.32339 15.1874 6.32339 15.0225C6.32339 9.49597 10.2025 4.79432 14.7418 4.79432C19.2811 4.79432 23.1602 9.49597 23.1602 15.0225C23.1602 18.8168 21.3032 22.2399 18.7034 23.9721C19.5287 24.5083 20.3953 24.9207 21.3444 25.0857C25.141 24.3021 28.1947 20.3015 28.4423 15.5586C28.4423 15.3937 28.4423 15.1874 28.4423 15.0225C28.4423 7.14514 22.4174 1 14.7418 1C7.02492 1 1 7.14514 1 15.0225C1 22.8998 7.02492 29.0449 14.7005 29.0449C15.6084 29.0449 16.475 28.9625 17.3416 28.7975C11.1516 27.6015 6.52972 22.2399 6.32339 15.5586Z" fill="url(#paint0_linear_1879_3320)"></path><path fill-rule="evenodd" clip-rule="evenodd" d="M18.7036 23.972C18.7035 23.972 18.7035 23.9721 18.7034 23.9721C18.7077 23.9749 18.712 23.9777 18.7163 23.9805C19.9172 24.7873 21.2812 25.2506 22.7062 25.2506C27.2456 25.2506 31.1246 20.549 31.1246 15.0225V14.4863C30.877 7.80502 26.2552 2.44349 20.0652 1.24746C20.9318 1.08249 21.7984 1 22.7062 1C30.3818 1 36.4068 7.14514 36.4068 15.0225C36.4068 22.8998 30.3818 29.0449 22.7062 29.0449C15.0307 29.0449 9.00574 22.8998 9.00574 15.0225V14.4863C9.19106 9.70789 12.2392 5.69466 16.0573 4.92674C16.9943 5.11641 17.8866 5.50394 18.7026 6.05135C16.0835 7.81816 14.2466 11.2214 14.2466 15.0225C14.2466 18.8079 16.0859 22.2064 18.7036 23.972ZM35.1688 15.0225C35.1688 9.20727 31.5786 4.38189 26.4615 2.81467C29.9279 5.49544 32.1563 9.70218 32.3626 14.4451V14.9812V15.0225C32.3626 21.2501 27.9058 26.4879 22.665 26.4879C17.4241 26.4879 13.0086 21.2501 13.0086 15.0225C13.0086 11.5581 14.4529 8.21745 16.7226 6.07284C13.2562 6.48526 10.4088 10.1146 10.2025 14.5276V15.0225C10.2025 22.1987 15.7322 27.8077 22.7062 27.8077C29.6803 27.8077 35.1688 22.1987 35.1688 15.0225Z" fill="url(#paint1_linear_1879_3320)"></path><defs><linearGradient id="paint0_linear_1879_3320" x1="23.9535" y1="24.2648" x2="4.8749" y2="5.17509" gradientUnits="userSpaceOnUse"><stop offset="0.02" stop-color="#CCCCCC"></stop><stop offset="1" stop-color="#B3B3B3"></stop></linearGradient><linearGradient id="paint1_linear_1879_3320" x1="12.5653" y1="6.52795" x2="33.3402" y2="23.9703" gradientUnits="userSpaceOnUse"><stop offset="0.015625" stop-color="#CCCCCC"></stop><stop offset="1" stop-color="#B2B2B2"></stop></linearGradient></defs></svg> 