<?xml version="1.0" encoding="UTF-8"?> <svg xmlns="http://www.w3.org/2000/svg" width="48" height="48" viewBox="0 0 48 48" fill="none"> <rect width="48" height="48" rx="24" fill="white" fill-opacity="0.08"></rect> <path fill-rule="evenodd" clip-rule="evenodd" d="M12 36L18.3492 34.5888C20.0875 35.5181 22.0288 36.003 24 36C30.6276 36 36 30.6276 36 24C36 17.3724 30.6276 12 24 12C17.3724 12 12 17.3724 12 24C11.997 25.9712 12.4819 27.9125 13.4112 29.6508L12 36ZM20.5 24C20.5 24.8284 19.8284 25.5 19 25.5C18.1716 25.5 17.5 24.8284 17.5 24C17.5 23.1716 18.1716 22.5 19 22.5C19.8284 22.5 20.5 23.1716 20.5 24ZM25.5 24C25.5 24.8284 24.8284 25.5 24 25.5C23.1716 25.5 22.5 24.8284 22.5 24C22.5 23.1716 23.1716 22.5 24 22.5C24.8284 22.5 25.5 23.1716 25.5 24ZM29 25.5C29.8284 25.5 30.5 24.8284 30.5 24C30.5 23.1716 29.8284 22.5 29 22.5C28.1716 22.5 27.5 23.1716 27.5 24C27.5 24.8284 28.1716 25.5 29 25.5Z" fill="white"></path> </svg> 