<?xml version="1.0" encoding="UTF-8"?> <svg xmlns="http://www.w3.org/2000/svg" width="48" height="48" viewBox="0 0 48 48" fill="none"> <rect width="48" height="48" rx="24" fill="white" fill-opacity="0.08"></rect> <path d="M39 24.2048C39 22.4639 37.5215 21.0813 35.7204 21.0813C34.8333 21.0813 34.0269 21.4142 33.4355 21.9518C31.1774 20.4157 28.086 19.4172 24.6452 19.2892L26.1505 12.5813L31.043 13.5798C31.0968 14.7575 32.1183 15.7048 33.3817 15.7048C34.672 15.7048 35.7204 14.7063 35.7204 13.4774C35.7204 12.2485 34.672 11.25 33.3817 11.25C32.4677 11.25 31.6613 11.762 31.2849 12.5045L25.828 11.4036C25.6667 11.378 25.5054 11.4036 25.3979 11.4804C25.2634 11.5572 25.1828 11.6852 25.1559 11.8389L23.4892 19.3148C19.9946 19.4172 16.8495 20.4157 14.5645 21.9774C13.9731 21.4398 13.1667 21.1069 12.2796 21.1069C10.4516 21.1069 9 22.5151 9 24.2304C9 25.5105 9.80645 26.5858 10.9355 27.0723C10.8817 27.3795 10.8548 27.6867 10.8548 28.0196C10.8548 32.8328 16.7419 36.75 24 36.75C31.2581 36.75 37.1452 32.8584 37.1452 28.0196C37.1452 27.7123 37.1183 27.3795 37.0645 27.0723C38.1936 26.5858 39 25.4849 39 24.2048ZM16.4731 26.4322C16.4731 25.2033 17.5215 24.2048 18.8118 24.2048C20.1022 24.2048 21.1505 25.2033 21.1505 26.4322C21.1505 27.6611 20.1022 28.6596 18.8118 28.6596C17.5215 28.6852 16.4731 27.6611 16.4731 26.4322ZM29.5645 32.3464C27.9516 33.8825 24.8871 33.9849 24 33.9849C23.086 33.9849 20.0215 33.8569 18.4355 32.3464C18.1935 32.116 18.1935 31.7575 18.4355 31.5271C18.6774 31.2967 19.0538 31.2967 19.2957 31.5271C20.3172 32.5 22.4677 32.8328 24 32.8328C25.5323 32.8328 27.7097 32.5 28.7043 31.5271C28.9462 31.2967 29.3226 31.2967 29.5645 31.5271C29.7796 31.7575 29.7796 32.116 29.5645 32.3464ZM29.1344 28.6852C27.8441 28.6852 26.7957 27.6867 26.7957 26.4578C26.7957 25.2289 27.8441 24.2304 29.1344 24.2304C30.4247 24.2304 31.4731 25.2289 31.4731 26.4578C31.4731 27.6611 30.4247 28.6852 29.1344 28.6852Z" fill="white"></path> </svg> 