<?xml version="1.0" encoding="UTF-8"?> <svg xmlns="http://www.w3.org/2000/svg" width="48" height="48" viewBox="0 0 48 48" fill="none"><rect width="48" height="48" rx="24" fill="white" fill-opacity="0.08"></rect><path d="M31.0155 15.5H16.9845C14.2316 15.5 12 17.7316 12 20.4845V27.4985C12 30.2514 14.2316 32.483 16.9845 32.483H31.0155C33.7684 32.483 36 30.2514 36 27.4985V20.4845C36 17.7316 33.7684 15.5 31.0155 15.5ZM27.6445 24.3328L21.0818 27.4628C20.9069 27.5462 20.7049 27.4187 20.7049 27.225V20.7693C20.7049 20.5728 20.9122 20.4454 21.0874 20.5343L27.6502 23.8599C27.8453 23.9588 27.8419 24.2386 27.6445 24.3328Z" fill="white"></path></svg> 