<?xml version="1.0" encoding="UTF-8"?> <svg xmlns="http://www.w3.org/2000/svg" width="16" height="16" viewBox="0 0 16 16" fill="none"> <g clip-path="url(#clip0_937_1070)"> <path d="M17.4545 3.23971V12.7604C17.4545 13.7481 16.6627 14.5455 15.6818 14.5455H0.318137C-0.662772 14.5455 -1.45459 13.7481 -1.45459 12.7604V3.23971C-1.45459 2.25195 -0.662772 1.45459 0.318137 1.45459H15.6818C16.6627 1.45459 17.4545 2.25195 17.4545 3.23971Z" fill="#0F5498"></path> <path d="M17.4545 1.65287V14.3471C17.4545 15.6641 16.6627 16.7273 15.6818 16.7273H0.318137C-0.662772 16.7273 -1.45459 15.6641 -1.45459 14.3471V1.65287C-1.45459 0.335846 -0.662772 -0.727295 0.318137 -0.727295H15.6818C16.6627 -0.727295 17.4545 0.335846 17.4545 1.65287Z" fill="#0F5498"></path> <path d="M-1.45459 3.19232V4.25813L5.29909 8.00004L7.27268 4.72152L1.37001 1.45459H0.356048C-0.645838 1.45459 -1.45459 2.23078 -1.45459 3.19232Z" fill="#F1F4F9"></path> <path d="M5.81824 -1.45459H10.1819V17.4545H5.81824V-1.45459Z" fill="#F1F4F9"></path> <path d="M-1.45459 5.81824H17.4545V10.1819H-1.45459V5.81824Z" fill="#F1F4F9"></path> <path d="M7.69822 5.81824L5.81824 9.25331L14.5053 14.5455H15.7298C16.6842 14.5455 17.4546 13.7323 17.4546 12.7248V11.7659L7.69822 5.81824Z" fill="#F1F4F9"></path> <path d="M-1.45459 11.7051V12.6849C-1.45459 13.7144 -0.682454 14.5454 0.274072 14.5454H1.50142L8.72723 10.0555L6.84299 6.54541L-1.45459 11.7051Z" fill="#F1F4F9"></path> <path d="M17.4545 3.31939C17.4545 2.28753 16.6529 1.45459 15.6598 1.45459H14.7386L7.27271 5.93633L9.22891 9.45459L17.4545 4.51286V3.31939Z" fill="#F1F4F9"></path> <path d="M6.54541 -0.727295H9.4545V16.7273H6.54541V-0.727295Z" fill="#DB1237"></path> <path d="M17.4545 6.54541V9.4545H-1.45459V6.54541H17.4545Z" fill="#DB1237"></path> <path d="M-0.727295 3.26449L7.4099 7.99994L7.99998 6.97076L-0.219827 2.18176C-0.503065 2.46137 -0.680089 2.84211 -0.727295 3.26449Z" fill="#DB1237"></path> <path d="M6.54541 6.54551V5.81824H-1.45459V6.54551H6.54541Z" fill="#F1F4F9"></path> <path d="M17.237 1.45459L8.72729 6.2221L9.35301 7.27277L18.1818 2.32307C17.9879 1.94045 17.6562 1.62464 17.237 1.45459Z" fill="#DB1237"></path> <path d="M8.61155 8L8 8.99167L16.9164 13.8182C17.2099 13.5488 17.4056 13.1876 17.4545 12.7864L8.61155 8Z" fill="#DB1237"></path> <path d="M17.4546 10.1817V9.45447H9.45459V10.1817H17.4546Z" fill="#F1F4F9"></path> <path d="M17.4546 6.54551V5.81824H9.45459V6.54551H17.4546Z" fill="#F1F4F9"></path> <path d="M6.66704 8.72729L-1.45459 13.6435C-1.25473 14.05 -0.927683 14.374 -0.515848 14.5455L7.27268 9.8325L6.66704 8.72729Z" fill="#DB1237"></path> <path d="M6.54541 10.1819V9.45459H-1.45459V10.1819H6.54541Z" fill="#F1F4F9"></path> </g> <defs> <clipPath id="clip0_937_1070"> <rect width="16" height="16" rx="8" fill="white"></rect> </clipPath> </defs> </svg> 