<?xml version="1.0" encoding="UTF-8"?> <svg xmlns="http://www.w3.org/2000/svg" width="16" height="16" viewBox="0 0 16 16" fill="none"> <g clip-path="url(#clip0_1166_2651)"> <path d="M13.7417 -1.71667e-07C14.9604 -1.00144e-07 15.5697 -6.43826e-08 15.9969 0.406848C16.1349 0.538243 16.2562 0.697284 16.3564 0.878134C16.6667 1.43811 16.6667 2.23691 16.6667 3.83451L16.6667 5.33333L-0.666586 5.33333L-0.666586 3.83451C-0.666586 2.23691 -0.666586 1.43811 -0.356239 0.878133C-0.25601 0.697283 -0.134691 0.538242 0.00326333 0.406847C0.43042 -9.52901e-07 1.03975 -9.17139e-07 2.25841 -8.45617e-07L13.7417 -1.71667e-07Z" fill="#F0F0F0"></path> <path d="M16.6667 5.33325L16.6667 10.6666L-0.666586 10.6666L-0.666586 5.33325L16.6667 5.33325Z" fill="#0F5498"></path> <path d="M16.6667 10.6667L16.6667 12.1657C16.6667 13.7632 16.6667 14.562 16.3564 15.122C16.2562 15.3028 16.1349 15.4619 15.9969 15.5932C15.5697 16.0001 14.9604 16.0001 13.7417 16.0001L2.25841 16.0001C1.03975 16.0001 0.43042 16.0001 0.00326315 15.5932C-0.134691 15.4619 -0.25601 15.3028 -0.356239 15.122C-0.666586 14.562 -0.666586 13.7632 -0.666586 12.1657L-0.666586 10.6667L16.6667 10.6667Z" fill="#DB1237"></path> </g> <defs> <clipPath id="clip0_1166_2651"> <rect width="16" height="16" rx="8" fill="white"></rect> </clipPath> </defs> </svg> 